<?xml version="1.0" encoding="utf-8"?><svg viewBox="0 0 1077 739" xmlns="http://www.w3.org/2000/svg" xmlns:xlink="http://www.w3.org/1999/xlink"><style>:root>svg{display:none}:root>svg:target{display:block}</style><svg fill="none" viewBox="0 0 28 28" id="facebook-icon" xmlns="http://www.w3.org/2000/svg"><path d="M23.8.4H3.4A3.403 3.403 0 000 3.8v20.4c0 1.875 1.525 3.4 3.4 3.4h20.4c1.875 0 3.4-1.525 3.4-3.4V3.8c0-1.875-1.525-3.4-3.4-3.4z" fill="#fff"/><path d="M22.95 14H18.7v-3.4c0-.938.762-.85 1.7-.85h1.7V5.5h-3.4a5.1 5.1 0 00-5.1 5.1V14h-3.4v4.25h3.4v9.35h5.1v-9.35h2.55l1.7-4.25z" fill="#1A6E78"/></svg><svg fill="none" viewBox="0 0 1077 739" id="heading-graphic-icon" xmlns="http://www.w3.org/2000/svg"><path fill="#1A6E78" d="M1 91h134v10H1zM0 638h135v10H0z"/><path fill="#1A6E78" d="M0 638V91h10v547zM105 0h972v739H105z"/></svg><svg fill="none" viewBox="0 0 28 28" id="inst-icon" xmlns="http://www.w3.org/2000/svg"><g clip-path="url(#ca)"><path d="M24.6.4H4.2A3.403 3.403 0 00.8 3.8v20.4c0 1.875 1.525 3.4 3.4 3.4h20.4c1.875 0 3.4-1.525 3.4-3.4V3.8C28 1.925 26.475.4 24.6.4z" fill="#fff"/><g clip-path="url(#cb)" fill="#1A6E78"><path d="M17.82 4.933h-6.84c-2.613 0-4.74 2.245-4.74 5.004v7.219c0 2.76 2.127 5.004 4.74 5.004h6.84c2.613 0 4.74-2.245 4.74-5.004V9.937c0-2.759-2.127-5.004-4.74-5.004zm3.465 12.223c0 2.017-1.555 3.658-3.466 3.658h-6.838c-1.911 0-3.466-1.64-3.466-3.658V9.937c0-2.017 1.555-3.658 3.466-3.658h6.838c1.911 0 3.466 1.641 3.466 3.658v7.219z"/><path d="M14.4 8.904c-2.425 0-4.399 2.082-4.399 4.643 0 2.56 1.974 4.643 4.399 4.643 2.426 0 4.399-2.083 4.399-4.643 0-2.56-1.973-4.643-4.399-4.643zm0 7.94c-1.723 0-3.124-1.48-3.124-3.297 0-1.818 1.402-3.298 3.124-3.298 1.722 0 3.124 1.48 3.124 3.298s-1.402 3.297-3.124 3.297zm4.463-7.334c.352 0 .637-.302.637-.674 0-.371-.285-.673-.637-.673-.353 0-.638.302-.638.673 0 .372.285.673.637.673z"/></g></g><defs><clipPath id="ca"><path fill="#fff" transform="translate(.8 .4)" d="M0 0h27.2v27.2H0z"/></clipPath><clipPath id="cb"><path fill="#fff" transform="translate(6.24 4.933)" d="M0 0h16.32v17.227H0z"/></clipPath></defs></svg><svg fill="none" viewBox="0 0 53 22" id="isart-icon" xmlns="http://www.w3.org/2000/svg"><g clip-path="url(#da)" fill-rule="evenodd" clip-rule="evenodd" fill="#fff"><path d="M.616 18.19c.01-.086.029-.173.048-.25l.058-.318c.01-.048.01-.105.028-.163.01-.048.02-.087.03-.125.009-.087.028-.174.038-.27.01-.086.038-.173.048-.24 0-.058.087-.549.106-.587 0-.077.115-.8.135-.838.01-.134.057-.288.067-.423.01-.154.067-.356.087-.51.01-.135.048-.308.067-.443.01-.077.02-.135.038-.221.01-.058.03-.116.03-.193.028-.096.038-.279.067-.356.01-.144.048-.289.067-.433.01-.058.02-.096.029-.164.01-.048 0-.086.029-.106 0-.125.048-.25.048-.356.029-.163.067-.337.087-.5l.057-.337c.01-.038.02-.125.03-.164.009-.057.018-.077.018-.134.01-.087.03-.174.049-.26.01-.068.038-.173.038-.231a3.05 3.05 0 00.048-.289c.01-.192.087-.385.087-.587a1.25 1.25 0 00.048-.26c.02-.096.038-.202.048-.289l.087-.529a.267.267 0 00.01-.087c0-.019 0-.019.009-.038l.01-.02c0-.144.048-.317.067-.452 0-.057.048-.337.067-.365 0-.126.039-.174.039-.29.01-.047.048-.22.048-.278 0-.068.02-.096.029-.164l.077-.404c0-.125.02-.183.038-.299.01-.038.039-.22.049-.269.01-.087.028-.144.038-.24.01-.068.087-.607.116-.636 0-.086.01-.106.028-.183.01-.067.049-.404.077-.433 0-.106.02-.183.039-.289.02-.096.02-.163.048-.24l.106-.606c0-.078.087-.597.106-.626 0-.087.077-.549.106-.606 0-.068.048-.366.067-.405 0-.086.029-.24.048-.327 0-.058.125-.77.135-.808 0-.135.048-.299.067-.433 0-.077.01-.058.02-.116H24.61l-.096.635c-.02.096.01.039-.039.077l.01.048c-.03.145-.106.78-.154.847.01.087-.077.664-.116.722.01.096-.077.578-.106.693l-.058.327-.182 1.001c.01.068-.077.597-.106.645.01.144-.048.366-.077.52l-.087.51c-.01.02-.01.02-.01.038l-.01.03c.01.076-.009.26-.057.317.01.106-.038.308-.058.414-.019.115-.096.673-.134.722.01.086-.058.548-.106.606.01.048-.039.443-.087.5.02.125-.096.597-.115.77-.03.106-.039.222-.058.328l-.067.336c.01.048-.049.54-.106.616.019.077-.01.26-.058.318.01.087-.02.183-.029.28l-.106.528c.01.068-.019.29-.057.337.01.097-.039.433-.087.5.01.097-.02.203-.039.3-.01.066-.028.24-.067.288.01.058 0 .106-.01.163 0 .03-.01.058-.019.087-.01.058 0 .029-.029.067.01.068 0 .106-.01.164 0 .02-.009.058-.009.077-.01.058 0 .029-.029.068l-.058.452c-.038.115.039-.096-.01.029 0 0-.009.019-.009.01 0 0 0 .009-.01.009.01.058 0 .106-.01.164l-.038.144c.02.077-.048.481-.086.539.01.096-.058.548-.106.606.01.096-.039.453-.087.51.01.077-.01.25-.048.308.01.087-.02.193-.038.29l-.068.423c-.01.067-.048.336-.077.394.02.096-.019.221-.038.327-.02.097-.02.231-.068.299.01.086-.019.183-.029.27-.01.076-.019.192-.057.24.019.115-.048.356-.068.481-.019.125-.019.356-.086.443.01.096-.039.452-.087.51.01.086-.067.568-.106.616.01.115-.058.433-.077.568-.02.144.01.163-.135.173H2.752v-.01c-.577 0-1.155 0-1.722.01H0c.01-.077.029-.164.048-.25l.077-.5c.01-.04.029-.213.048-.232 0-.058.067-.5.087-.53 0-.067.019-.163.029-.22.211-1.233.048-.164.298-1.79l.029.028zm4.388 1.675h3.254c1.01-4.976 2.358-12.906 3.253-18.113H8.286c.039 1.145-3.127 17.256-3.272 18.123l-.01-.01zm8.143-5.265c-.03.068-.039.193-.048.28-.01.086-.049.192-.049.288 0 .058-.028.135-.038.193-.01.067-.029.154-.039.23a2.09 2.09 0 00-.067.395c-.029.039-.106.53-.106.616l-.106.54c-.019.144-.067.26-.048.442.03.289.28.471.587.423.231-.038.212-.057.366-.144.058-.096.289-.289.27-.443.038-.057.105-.5.115-.568.029-.125.106-.51.096-.606l.01-.029c0-.01.077-.23.058-.365l.028-.097c.01-.029.01-.067.02-.106.01-.067.038-.144.019-.211.01-.02.01 0 .02-.039l.018-.086c.01-.068.01-.068.01-.126.048-.057.067-.317.087-.413.019-.125.086-.395.077-.5l.067-.29c.02-.105.048-.211.039-.308.028-.038.028-.096.019-.154.086-.134-.048-.654-.096-.798-.049-.135-.299-.54-.376-.578-.02-.048-.23-.337-.279-.366-.02-.057 0-.01-.038-.057l-.27-.337-.067-.106c-.087-.106-.491-.635-.53-.645-.019-.067-.183-.26-.24-.327-.048-.058-.212-.289-.25-.308-.02-.039-.25-.366-.29-.385-.047-.116-.134-.222-.201-.337a1.583 1.583 0 01-.097-.183c-.019-.048-.048-.144-.077-.183-.038-.221-.057-.327-.048-.568l.087-.615.144-.809c.03-.135.106-.481.087-.597.048-.067.087-.375.087-.471.038-.048.115-.54.105-.607.068-.106.097-.558.145-.721.019-.135.096-.434.086-.549.02-.02.01 0 .02-.039l.038-.163c.02-.068.048-.145.039-.212.028-.038.019-.02.038-.077.01-.029.02-.048.029-.077.02-.058.038-.096.038-.164.049-.048.106-.211.135-.288l.154-.289c.048-.029.096-.106.135-.154.048-.067.087-.096.144-.144.048-.039.318-.222.328-.241.086-.029.182-.096.279-.135.096-.038.183-.077.288-.106.222-.067.414-.096.655-.115.683-.02 1.386 0 2.079 0 .664 0 1.29.058 1.646.443.077.077.24.298.288.433.039.115.087.202.116.327a1.921 1.921 0 01.02.664c-.01.077-.03.173-.03.26-.01.087-.038.192-.048.279-.01.096-.029.231-.058.308 0 .067-.029.173-.038.25-.02.096-.039.193-.048.28a2.47 2.47 0 00-.048.288c-.01.067-.03.144-.049.231-.019.096-.038.183-.038.28-.029.086-.038.201-.058.307-.019.125-.038.222-.058.337 0 .067-.038.23-.048.289-.01.057-.01.077-.019.144-.01.048-.029.106-.029.173-.01.068-.029.154-.048.231a1.31 1.31 0 00-.038.26 3.01 3.01 0 01-.049.212l-2.57.01c0-.183.116-.51.107-.684.048-.058.096-.423.086-.51.02-.029.01 0 .02-.048l.076-.51c.058-.067.106-.616.145-.741.02-.135.077-.337.067-.462.039-.058.039-.202.068-.27l.01-.096.028-.125c.077-.375-.067-.703-.462-.703-.317 0-.645.193-.74.462-.02.049-.02.077-.04.116-.019.096-.048.23-.048.327-.019.087-.028.145-.048.24-.019.097-.038.174-.038.28l-.039.144-.029.173c-.019.126-.048.241-.057.357-.03.019-.02.077-.03.125-.009.067-.018.086-.028.144-.01.087-.048.212-.048.298-.02.077-.03.145-.048.241-.02.096-.039.173-.039.28-.029.038-.067.317-.077.413-.01.067-.029.337-.01.404.02.058-.019.02.03.048-.049.135.125.472.202.607.048.077-.01.029.067.067-.01.048-.01.01 0 .048 0 .02.02.039.029.058l.462.626c.038.028-.03 0 .038.028 0 .058.231.328.28.366l.346.404c0 .01-.02.01.029.077l.433.54.24.298c.068.086.039.067.097.096.01.058.144.221.183.289.077.115.144.279.202.308-.02.057-.01.019.019.086.02.03.02.039.038.087l.125.356c.039.144.01.154.058.193-.048.115-.019.288-.019.413-.01.077-.02.097-.02.193a4.55 4.55 0 00-.086.577c-.029.03 0-.01-.02.039 0 .01-.009.067-.009.067-.01.068-.019.106-.019.164a3.59 3.59 0 00-.087.49 2.401 2.401 0 00-.048.29c-.01.105-.048.202-.048.327-.02.019-.02.067-.029.106-.01.057-.01.086-.019.134-.02.097-.029.203-.048.29 0 .095-.048.23-.048.346a1.07 1.07 0 00-.048.279c-.02.134-.058.27-.068.414a2.493 2.493 0 00-.067.413c-.029.02-.029.096-.029.135-.01.067-.02.096-.029.164-.02.115-.048.24-.058.356a1.45 1.45 0 00-.048.211 2.077 2.077 0 00-.058.25l-.163.463c-.087.212-.193.337-.231.433-.02.01-.135.173-.164.212-.038.048-.048.057-.086.105l-.106.116c-.077.106-.385.327-.53.385-.077.029-.144.048-.22.096-.088.01-.424.125-.732.135l-.857.02c-.164 0-.27.018-.414.018H11.81c-.106 0-.125-.019-.222-.019-.048 0-.182-.029-.24-.038-.039-.01-.068-.01-.116-.02s-.067-.028-.125-.028c-.337-.077-.433-.193-.606-.318-.029-.02-.01-.01-.029-.02-.029-.047 0-.009-.039-.057-.01-.02-.019-.02-.028-.038l-.328-.616c-.01-.087-.038-.164-.048-.25-.01-.097.01-.184-.01-.27.03-.058.068-.5.078-.606.019-.154.096-.472.086-.597a.76.76 0 00.058-.327l.01-.03s.086-.317.067-.442c.038-.048.135-.616.125-.703l.039-.144c.01-.067.028-.106.01-.164l.018-.057c0-.01.01-.048.01-.058.01-.039.01-.077.02-.116.009-.076.038-.163.028-.24.048-.067.096-.385.087-.481.038-.058.115-.597.135-.712.057-.049 1.212-.02 1.28-.02h1.309l-.097.568-.038.222c-.02.105-.058.211-.058.327h-.038zM32.3 8.363l.077 1.213c.01.068.01.116.01.212 0 .096.019.106.019.202 0 .27.048.549.048.828l.029.394c.019.145.019.28.019.424 0 .115.029.279.038.394l.03.597c0 .096.019.116.019.202l.048.828c0 .096.019.106.019.202 0 .24.029.356.029.616l.038.414H31.01l.318-1.636c.048-.28.115-.54.163-.818.02-.135.049-.26.077-.405.03-.144.058-.27.077-.413l.318-1.637c.058-.27.096-.548.164-.818l.115-.606c.01-.039.01-.048.02-.106l.028-.106.01.02zm9.278 2.869h-1.665c-.068 0-.039-.058-.039-.135l.193-3.051c0-.096.019-.106.019-.193l.058-1.02c.01-.067.01-.125.01-.202 0-.173.047-.606.047-.808 0-.097.02-.116.02-.202l.019-.414c.01-.116.029-.29.029-.414h1.78c.491 0 .347.366.347.75l-.221 3.446c0 .077.01.144 0 .221-.049.434-.049.992-.097 1.415-.029.26.077.597-.5.597v.01zm-11.646 8.97c.039-.183.077-.385.116-.568.038-.202.077-.385.115-.587l.116-.587c.038-.193.077-.395.125-.578h2.54c0 .164.049.423.049.587.01.289.058.587.067.876.01.193.048.395.048.597 0 .086-.01.26.068.26h6.073c.077 0 .048-.135.067-.328.02-.24.02-.5.048-.74.01-.058 0-.126 0-.184l.068-.933c.019-.173.01-.395.038-.568.029-.183.02-.375.039-.568.01-.058 0-.115.01-.183l.096-1.492c0-.077 0-.125.01-.202.028-.211.047-.548.047-.76h.443c.067 0 .058.087.077.144l.49 2.06.184.76c.192.751.375 1.492.539 2.252l.134.568c.02.068.01.164.077.164h3.821c0-.087-.067-.28-.096-.375l-.395-1.473c-.154-.626-.346-1.242-.5-1.867-.154-.616-.346-1.242-.49-1.858-.03-.125-.078-.25-.107-.375.472 0 .828-.125 1.088-.337a1.83 1.83 0 00.693-1.463l.212-3.368c.019-.106.01-.24.028-.337l.039-.684c0-.077.01-.096.02-.154.009-.067 0-.115.009-.182.029-.164.019-.337.029-.5l.048-.675c.01-.163.01-.356.029-.52l.057-1.02h1.146c0 .318-.048.626-.048.944l-.068.943c-.02.163-.01.317-.02.481l-.066.943c0 .174-.01.337-.03.481l-.23 3.793c-.02.134-.02.336-.03.471 0 .087-.018.116-.018.221l-.308 5.005c-.01.145-.039.318-.039.462l-.058.953a3.85 3.85 0 00-.029.481h3.773c.077 0 .048-.106.048-.192 0-.154.039-.308.039-.481l.077-1.194c.02-.125.029-.327.029-.472 0-.086.02-.125.02-.24 0-.116.018-.144.018-.24 0-.126.01-.347.03-.472.028-.164.009-.327.028-.491.01-.144.029-.308.029-.462l.038-.481c0-.106.01-.145.02-.222l.038-.74c.02-.28.058-.665.067-.944l.049-.963c.01-.144.038-.307.038-.461 0-.164.029-.328.039-.482.01-.336.038-.625.048-.962l.337-5.226c.01-.087.01-.154.01-.25 0-.087.018-.126.018-.241H53.6c-.067-.28-.116-.568-.183-.866l-.26-1.3c-.029-.154-.058-.288-.087-.442-.028-.135-.057-.289-.086-.424-.029-.154-.077-.298-.077-.452h-6.93c-.01.067-.029.115-.048.173-.058.164-.135.347-.173.51h-.039c-.019-.067-.086-.115-.134-.163a1.43 1.43 0 00-.357-.241c-.317-.192-.818-.28-1.241-.28h-7.257c0 .26-.038.463-.038.704 0 .077-.01.105-.01.154-.01.067 0 .125-.01.182-.01.097-.019.25-.029.347-.01.058 0 .115 0 .173l-.057.886c-.03.211-.039.789-.058 1.058l-.029.52c0 .183-.038.337-.038.51l-.106 1.578c-.01.29-.058.588-.048.876 0 .29-.039.587-.049.876l-.134 2.079c0 .414-.068.837-.068 1.251h-.019c0-.346-.125-1-.154-1.386l-.029-.23c-.01-.097-.01-.145-.019-.232l-.327-2.762c-.087-.606-.125-1.241-.222-1.838l-.057-.462-.491-4.158c-.02-.173-.039-.115-.404-.115h-3.62l-.654 2.704c-.51 2.03-.981 4.071-1.491 6.111a17.18 17.18 0 00-.164.674l-1.068 4.399-.087.346-.991 4.071c-.01.03-.087.337-.087.337.01.048 0 .029.058.029h3.705v.038z"/></g><defs><clipPath id="da"><path fill="#fff" d="M0 0h52.338v21.684H0z"/></clipPath></defs></svg><svg fill="none" viewBox="0 0 127 92" id="logo-icon" xmlns="http://www.w3.org/2000/svg"><path d="M62.919 24.264l-10.13-5.843-10.135 5.843v11.708l10.135 5.855 10.13-5.855V24.263zm-1.185 11.023l-8.945 5.181-8.95-5.18V24.925l8.95-5.181 8.945 5.18v10.362z" fill="#fff"/><path d="M44.661 25.42v9.39l8.128 4.697 8.122-4.698v-9.388l-8.122-4.698-8.128 4.698zm8.916 10.184c0 .765.064 1.456.115 2.084l-.909.523-.931-.54a33.82 33.82 0 00.115-2.067c.034-1.554-.075-2.838-.127-3.92a9.198 9.198 0 001.87 0c-.052 1.088-.162 2.371-.133 3.92zm.898-8.957a1.938 1.938 0 002.37.771.374.374 0 01.368-.31h.696a.368.368 0 01.368.368v1.67a.374.374 0 01-.374.373h-.69a.38.38 0 01-.368-.31 2.225 2.225 0 00-2.773 1.26.627.627 0 01-.575.38h-1.398a.575.575 0 01-.633-.38l-.454-1.111a.73.73 0 00-1.15-.351A12.918 12.918 0 0046.691 32a.138.138 0 01-.253-.092v-.576a1.044 1.044 0 01.12-.575c.742-1.6 2.146-4.484 5.057-4.57h2.26c.305.034.432.224.599.46zM32.017 42.776v11.71l10.136 5.853 10.13-5.854V42.776l-10.13-5.854-10.136 5.854zm19.08.685v10.362l-8.944 5.18-8.95-5.18V43.461l8.95-5.18 8.945 5.18zm4.275.479v9.388l8.128 4.697 8.128-4.697v-9.389L63.5 39.242l-8.128 4.697zM64 56.482l-.46.264-.529-.299V50.49a.248.248 0 01.253-.242h.495a.247.247 0 01.241.248v5.986zm3.74-8.02c0 .208-.133.352-.351.346h-2.301a.764.764 0 00-.852.777.22.22 0 01-.236.236h-.977a.225.225 0 01-.236-.242.767.767 0 00-.852-.777h-2.3a.339.339 0 01-.352-.35l-.069-.876a.306.306 0 01.346-.35h7.909c.236 0 .368.132.351.35l-.08.887zm-4.16-3.69h.075a.103.103 0 01.115.087l.04.144a.33.33 0 010 .08l.064.22a.07.07 0 00.132 0c.04-.15.087-.3.127-.45a.104.104 0 01.109-.086h.265a.1.1 0 01.072.02.098.098 0 01.037.066l.219 1.198a.08.08 0 00.074.05.081.081 0 00.075-.05c.063-.403.132-.806.201-1.203a.093.093 0 01.063-.082.094.094 0 01.035-.005h.345a.098.098 0 01.104.087l.155.846a.07.07 0 00.132 0c.046-.282.093-.576.144-.846 0-.058.04-.087.104-.092h.46a.104.104 0 01.115.086l.11.363a.069.069 0 00.066.049.069.069 0 00.066-.05l.097-.368a.115.115 0 01.115-.086h.121a.38.38 0 01.38.374v1.727a.645.645 0 00-.184 0l-3.802.029a.718.718 0 00-.19 0h-.224a.719.719 0 00-.19 0l-3.803-.046a.645.645 0 00-.184 0v-1.727a.38.38 0 01.38-.374h.127a.114.114 0 01.109.092l.098.362a.07.07 0 00.066.05.07.07 0 00.066-.05l.11-.362a.104.104 0 01.114-.08h.443a.104.104 0 01.104.091l.138.846a.07.07 0 00.066.05.069.069 0 00.066-.05l.155-.84a.1.1 0 01.037-.066.1.1 0 01.073-.02h.345a.103.103 0 01.098.092c.063.397.132.8.195 1.203a.08.08 0 00.075.05.081.081 0 00.075-.05l.224-1.198a.092.092 0 01.104-.086h.27a.121.121 0 01.11.092l.12.444a.07.07 0 00.066.049.069.069 0 00.066-.05l.064-.212a.48.48 0 010-.087l.046-.138a.104.104 0 01.115-.086h.184l.051-.006z" fill="#fff"/><path d="M53.364 42.776v11.71L63.5 60.338l10.13-5.854V42.776L63.5 36.922l-10.136 5.854zM72.48 53.8l-8.95 5.18-8.95-5.18V43.438l8.95-5.18 8.95 5.18V53.8zm-7.145-42.045v-1.41l-.73 1.41h.73z" fill="#fff"/><path d="M55.372 7.011v9.395l8.128 4.692 8.128-4.692V7.011L63.5 2.303 55.372 7.01zm8.168-2.573l6.224 3.621v7.282l-6.293 3.655-6.293-3.655V8.059l4.4-2.544-.396-.685 1.95.259-.748 1.819-.397-.68-3.986 2.303v6.332l5.47 3.16 5.47-3.16V8.531l-5.4-3.16v-.933zm-1.685 5.797c-.265 0-.443.161-.696.512l-.53-.472a1.41 1.41 0 011.278-.788 1.104 1.104 0 011.15 1.151c0 .633-.293.944-.897 1.468l-.575.472h1.49v.72h-2.526v-.634l1.15-1.036c.426-.391.576-.575.576-.91a.443.443 0 00-.42-.483zm4.602 1.52v.61h-.42v.967h-.708v-.967h-1.386v-.697l1.15-2.124h.967v2.21h.397z" fill="#fff"/><path d="M73.63 17.563V5.854L63.5 0 53.364 5.854v11.709L63.5 23.417l10.13-5.854zm-19.08-.685V6.516l8.95-5.18 8.95 5.18v10.362l-8.95 5.18-8.95-5.18zm-4.275 36.45v-9.389l-8.122-4.697-8.128 4.697v9.389l8.128 4.697 8.122-4.697zm-2.496-4.122a7.309 7.309 0 00-.075-1.635 1.787 1.787 0 000-.305v-.995c.278.295.464.665.535 1.065.12.623.158 1.26.115 1.893a1.261 1.261 0 01-.932 1.22l-4.544 1.279a.621.621 0 00-.478.708v1.64h-.575v-1.64a1.198 1.198 0 01.915-1.29l4.544-1.278a.661.661 0 00.495-.662zM36.4 47.238v-1.422a1.025 1.025 0 011.024-1.025h8.588a1.024 1.024 0 011.018 1.03v1.422a1.037 1.037 0 01-1.012 1.048H37.43a1.036 1.036 0 01-1.03-1.053zm4.981 7.903a.368.368 0 01.368-.368h.737a.368.368 0 01.368.368v1.203l-.702.403-.77-.443v-1.163zM66.008 25.42v9.39l8.128 4.697 8.122-4.698v-9.388l-8.122-4.698-8.128 4.698zm9.652 2.303l-.172-1.209a.207.207 0 01.34-.19A3.355 3.355 0 0177.12 28.8a2.229 2.229 0 01-.534 1.381c-.927 1.123-1.295 1.238-1.41 3.88l-.115 2.878v.789l-.903.518-1.007-.576c0-.23 0-.483.03-.765l.114-2.82c.08-2.574-.575-2.735-1.484-4.03-.28-.44-.42-.953-.403-1.474.027-.607.199-1.2.5-1.727a.201.201 0 01.386.075l.173 1.238a.783.783 0 00.886.661l1.668-.241a.776.776 0 00.638-.893v.03zm1.065 16.217v9.388l8.122 4.697 8.128-4.697v-9.389l-8.128-4.697-8.122 4.697zm8.122 12.807L82.96 55.66l.783-.938c.176-.208.266-.476.253-.748l-.242-4.226a.349.349 0 01.211-.345.352.352 0 01.14-.029.356.356 0 00.356-.357v-.575a.35.35 0 01.351-.357h.996a.351.351 0 01.35.34v.69a.265.265 0 00.265.26.27.27 0 01.259.195l1.484 5.25-3.32 1.928zm1.726-11.893l.724 1.198a.254.254 0 01-.034.305l-.978.99a.252.252 0 01-.184.075h-1.83a.247.247 0 01-.235-.156l-.357-.863a.259.259 0 00-.224-.155h-.046a.248.248 0 00-.236.138l-1.65 3.695c-.11.225-.37.196-.277 0l1.196-3.511a.247.247 0 00-.235-.334h-.161v-.357h-.576a.253.253 0 010-.506h.334a.253.253 0 00.253-.254v-.138a.254.254 0 01.253-.253h4.027a.248.248 0 01.253.126h-.017z" fill="#fff"/><path d="M84.847 36.922l-10.13 5.854v11.71l10.13 5.853 10.136-5.854V42.776l-10.136-5.854zm8.95 16.878l-8.95 5.18-8.945-5.18V43.438l8.945-5.18 8.95 5.18V53.8zm-9.525-29.536L74.136 18.42l-10.135 5.843v11.708l10.135 5.855 10.136-5.855V24.263zm-1.185 11.023l-8.95 5.181-8.951-5.18V24.925l8.95-5.181 8.95 5.18v10.362zM31.638 82.462v.782H17.027v-.782L24.16 68.45h.863l6.615 14.011zm-4.303-2.17l-2.819-6.034-3.083 6.04 5.902-.007zm-15.75 2.952V74.19l-4.24 3.863-4.239-3.863v9.055H.15V68.45h1l6.184 5.613 6.16-5.613h1.03v14.794h-2.939zm25.805-6.268a7.045 7.045 0 01-2.237-.927 4.068 4.068 0 01-1.899-3.339 3.958 3.958 0 011.076-3.016 5.135 5.135 0 013.451-1.457 7.33 7.33 0 014.43 1.48l.483.316-1.582 2.499-.523-.34c-.95-.61-1.565-1.013-2.877-1.013a2.26 2.26 0 00-1.311.575 1.048 1.048 0 00-.253.84c0 .76.575 1.187 1.898 1.52l.426.127a7.873 7.873 0 013.267 1.963 4.284 4.284 0 011.15 2.879 4.607 4.607 0 01-4.602 4.45 8.72 8.72 0 01-2.594-.358 8.157 8.157 0 01-3.48-2.233l2.151-2.026a5.098 5.098 0 003.964 1.669 1.616 1.616 0 001.622-1.497c0-.806-.903-1.542-2.445-2.072h-.063l-.052-.04zm18.275-8.526v2.93h-4.09v11.841h-2.95v-11.84H44.51v-2.954l11.154.023zm11.855 2.93h-6.902v2.723h5.695v2.953h-5.695v3.212h6.834v2.953h-9.78V68.427h9.849v2.953zm9.722 11.864l-2.76-5.929h-1.48v5.906h-2.95V68.427h5.568a4.44 4.44 0 014.328 3.504 4.447 4.447 0 01-2.493 4.981l2.934 6.332h-3.147zm-4.24-11.864v2.976h2.618a1.467 1.467 0 001.478-1.473 1.492 1.492 0 00-1.478-1.503h-2.617zm27.089 6.396a5.76 5.76 0 01-1.857 3.713 5.75 5.75 0 01-9.596-3.713V68.45h2.95v9.326a2.782 2.782 0 003.836 2.563 2.68 2.68 0 00.887-.6c.519-.514.814-1.21.823-1.94V68.45h2.951v9.326h.006zm6.471-.8a7.1 7.1 0 01-2.238-.927 4.07 4.07 0 01-1.898-3.339 3.958 3.958 0 011.076-3.016 5.133 5.133 0 013.451-1.457 7.33 7.33 0 014.429 1.48l.484.316-1.548 2.499-.529-.34c-.949-.61-1.559-1.013-2.876-1.013a2.244 2.244 0 00-1.306.575 1.024 1.024 0 00-.253.84c0 .76.575 1.187 1.898 1.52l.42.127a7.832 7.832 0 013.267 1.963 4.282 4.282 0 011.151 2.879 4.604 4.604 0 01-4.602 4.45 8.763 8.763 0 01-2.594-.358 8.156 8.156 0 01-3.521-2.239l2.152-2.026a5.105 5.105 0 004.044 1.68 1.621 1.621 0 001.627-1.496c0-.806-.908-1.543-2.45-2.072h-.063l-.121-.046zm18.373-4.939c-2.876-1.86-7.196-.127-7.196 3.84a4.609 4.609 0 002.528 4.145 4.6 4.6 0 004.835-.427l1.898 2.17a7.647 7.647 0 01-11.298-1.722 7.654 7.654 0 01-.115-8.162 7.65 7.65 0 0111.246-2.038l-1.898 2.194zM3.492 90.244a1.748 1.748 0 01-2.98 1.236A1.748 1.748 0 010 90.244v-2.85h.897v2.844a.846.846 0 00.829.818.822.822 0 00.575-.242.852.852 0 00.247-.575v-2.85h.938v2.844l.006.011zm5.073 1.67l-2.537-2.637v2.637h-.897V87.4h.282l2.49 2.52V87.4h.898v4.513h-.236zm3.739-3.61v2.706h.478v.904h-1.853v-.904h.484v-2.706h-.484v-.903h1.858v.903h-.483zm4.286 3.61L14.553 87.4h.978l1.15 2.561 1.151-2.561h.995l-2.03 4.513h-.207zm7.328-3.61h-2.1v.83h1.726v.897H21.82v.979h2.08v.904h-2.985V87.4h3.002v.903zm4.268 3.61l-.845-1.808h-.449v1.796h-.915v-4.507h1.726a1.358 1.358 0 011.137 2.09 1.34 1.34 0 01-.579.495l.892 1.934h-.967zm-1.294-3.621v.932h.8a.449.449 0 00.448-.449.453.453 0 00-.448-.46l-.8-.023zm5.632 1.709a2.128 2.128 0 01-.685-.287 1.225 1.225 0 01-.575-1.014 1.18 1.18 0 01.328-.92c.28-.275.654-.433 1.047-.444a2.22 2.22 0 011.346.45l.15.097-.467.766-.16-.104a1.415 1.415 0 00-.87-.31.72.72 0 00-.402.166.34.34 0 00-.075.26c0 .23.167.362.575.465l.127.035c.373.109.715.306.995.576.224.239.351.553.357.88a1.39 1.39 0 01-.363.898 1.369 1.369 0 01-1.035.461 2.624 2.624 0 01-.788-.11 2.468 2.468 0 01-1.076-.679l.685-.598a1.552 1.552 0 001.208.512.495.495 0 00.495-.46c0-.242-.277-.467-.742-.628h-.052l-.023-.011zm6.534 1.071h-1.863l-.426.84h-1.007l2.301-4.512h.265l2.128 4.513H39.45l-.39-.84zm-.42-.898l-.471-1.007-.507 1.007h.978zm4.447.835h1.68v.892h-2.577v-4.501h.897v3.609zm8.45-1.008a2.13 2.13 0 01-.684-.287 1.226 1.226 0 01-.576-1.014 1.205 1.205 0 01.328-.92 1.57 1.57 0 011.047-.444c.488-.001.962.156 1.352.45l.144.097-.466.766-.161-.104a1.397 1.397 0 00-.869-.31.69.69 0 00-.397.166.317.317 0 00-.057.248c0 .23.167.362.575.466l.127.034c.373.11.714.307.995.576.226.238.353.553.356.88-.01.334-.138.653-.362.899a1.369 1.369 0 01-1.035.46 2.62 2.62 0 01-.788-.109 2.468 2.468 0 01-1.076-.68l.633-.586a1.552 1.552 0 001.207.512.495.495 0 00.495-.46c0-.242-.276-.467-.742-.628h-.052l.006-.011zm6.5-1.698H55.93v.83h1.726v.897H55.93v.979h2.088v.904h-2.985V87.4h3.002v.903zm4.251 3.61l-.845-1.808h-.466v1.796h-.898v-4.507h1.726a1.351 1.351 0 011.227 1.957c-.14.277-.369.5-.652.627l.892 1.935h-.984zm-1.311-3.621v.932h.8a.447.447 0 00.448-.449.453.453 0 00-.449-.46l-.8-.023zm5.528 3.621L64.466 87.4h.996l1.15 2.561 1.15-2.561h.996l-2.031 4.513h-.224zm5.321-3.61v2.706h.477v.904h-1.858v-.904h.483v-2.706h-.483v-.903h1.858v.903h-.477zm5.602.19a1.408 1.408 0 00-1.974 1.93 1.41 1.41 0 002.026.373l.575.662a2.329 2.329 0 01-3.475-3.01 2.33 2.33 0 013.424-.622l-.576.667zm5.753-.19h-2.071v.83h1.726v.897h-1.726v.979h2.082v.904h-2.98V87.4h2.998l-.03.903zm8.536.19a1.409 1.409 0 00-1.975 1.93 1.41 1.41 0 002.027.373l.575.662a2.33 2.33 0 01-3.475-3.01 2.329 2.329 0 013.423-.622l-.575.667zm6.776 1.157a2.338 2.338 0 01-2.787 2.3 2.336 2.336 0 01-.846-4.237 2.334 2.334 0 013.633 1.937zm-3.744 0a1.41 1.41 0 102.82.012 1.41 1.41 0 00-2.82-.012zm9.284 2.263V89.15l-1.289 1.152-1.294-1.152v2.764h-.897V87.4h.305l1.886 1.727 1.876-1.727h.316v4.513h-.903zm4.47-4.514a1.357 1.357 0 011.269 1.356 1.358 1.358 0 01-1.269 1.356h-.576v1.802h-.897V87.4h1.473zm0 1.808a.44.44 0 00.416-.276.444.444 0 00.032-.173.448.448 0 00-.448-.455h-.576v.921l.576-.017zm5.873 1.865h-1.864l-.426.84h-1.012l2.301-4.512h.264l2.129 4.513h-.995l-.397-.84zm-.426-.898l-.472-1.007-.506 1.007h.978zm6.983 1.739l-2.536-2.637v2.637h-.898V87.4h.282l2.491 2.52V87.4h.897v4.513h-.236zM127 87.4l-1.467 2.879v1.658h-.897v-1.658l-1.473-2.878h.995l.926 1.698.921-1.698H127z" fill="#fff"/></svg><svg fill="none" viewBox="0 0 20 20" id="modal-callback-close-icon" xmlns="http://www.w3.org/2000/svg"><g clip-path="url(#fa)" fill="#000"><path d="M1.896 19.875A1.894 1.894 0 01.55 19.42a1.894 1.894 0 010-2.671L16.634.665A1.894 1.894 0 0119.4 3.242L3.222 19.42a1.894 1.894 0 01-1.326.455z"/><path d="M17.96 19.875a1.895 1.895 0 01-1.326-.55L.551 3.242A1.894 1.894 0 013.22.57L19.4 16.653a1.894 1.894 0 010 2.766 1.895 1.895 0 01-1.44.455z"/></g><defs><clipPath id="fa"><path fill="#fff" d="M0 0h20v20H0z"/></clipPath></defs></svg><svg fill="none" viewBox="0 0 16 16" id="phone-icon" xmlns="http://www.w3.org/2000/svg"><path fill-rule="evenodd" clip-rule="evenodd" d="M15.708 14.074c-.106.106-.234.241-.37.384-.34.36-.763.807-1.028.989-1.397.954-3.265.498-4.587-.053-1.743-.727-3.641-2.066-5.346-3.77C2.672 9.919 1.333 8.02.607 6.278.056 4.956-.402 3.088.552 1.691c.181-.266.63-.689.989-1.029.144-.135.278-.263.384-.369a1.007 1.007 0 011.42 0l2.57 2.569a1.007 1.007 0 010 1.42l-.7.698a1.53 1.53 0 00-.27 1.808 10.266 10.266 0 004.266 4.266 1.528 1.528 0 001.808-.27l.698-.699a1.006 1.006 0 011.42 0l2.57 2.57a1.006 1.006 0 010 1.419z" fill="#fff"/></svg><svg fill="none" viewBox="0 0 12 20" id="slider-arrow-icon" xmlns="http://www.w3.org/2000/svg"><path d="M10.52 18.817c.65-.65.65-1.7 0-2.35L4.052 10l6.466-6.467c.65-.65.65-1.7 0-2.35a1.66 1.66 0 00-2.35 0L.52 8.833c-.65.65-.65 1.7 0 2.35l7.65 7.65c.634.634 1.7.634 2.35-.016z" fill="#1A6E78"/></svg><svg fill="none" viewBox="0 0 28 28" id="tg-icon" xmlns="http://www.w3.org/2000/svg"><g clip-path="url(#ia)"><path d="M24.333.4h-20.4a3.403 3.403 0 00-3.4 3.4v20.4c0 1.875 1.525 3.4 3.4 3.4h20.4c1.875 0 3.4-1.525 3.4-3.4V3.8c0-1.875-1.525-3.4-3.4-3.4z" fill="#fff"/><g clip-path="url(#ib)"><path d="M21.976 6.844L5.913 12.86c-1.096.428-1.09 1.022-.2 1.287l4.123 1.25 9.542-5.849c.45-.267.863-.123.524.17l-7.73 6.777h-.002.002l-.285 4.13c.417 0 .6-.186.835-.405l2.003-1.892 4.166 2.99c.769.41 1.32.2 1.511-.691l2.735-12.522c.28-1.09-.428-1.584-1.161-1.262z" fill="#1A6E78"/></g></g><defs><clipPath id="ia"><path fill="#fff" transform="translate(.533 .4)" d="M0 0h27.2v27.2H0z"/></clipPath><clipPath id="ib"><path fill="#fff" transform="translate(5.067 6.747)" d="M0 0h18.133v15.413H0z"/></clipPath></defs></svg><svg fill="none" viewBox="0 0 28 28" id="whatsapp-icon" xmlns="http://www.w3.org/2000/svg"><g clip-path="url(#ja)"><path d="M24.067.4h-20.4a3.403 3.403 0 00-3.4 3.4v20.4c0 1.875 1.525 3.4 3.4 3.4h20.4c1.875 0 3.4-1.525 3.4-3.4V3.8c0-1.875-1.525-3.4-3.4-3.4z" fill="#fff"/><g clip-path="url(#jb)"><path d="M20.29 6.7a8.941 8.941 0 00-2.926-1.984 8.883 8.883 0 00-3.46-.69c-4.976 0-9.031 4.088-9.031 9.103 0 1.608.42 3.169 1.203 4.547L4.8 22.397l4.784-1.268a8.976 8.976 0 004.32 1.112c4.974 0 9.03-4.088 9.03-9.103A9.082 9.082 0 0020.29 6.7zm-6.387 13.998a7.484 7.484 0 01-3.827-1.056l-.273-.166-2.843.753.756-2.792-.182-.285a7.635 7.635 0 01-1.148-4.023c0-4.17 3.371-7.568 7.508-7.568a7.4 7.4 0 015.303 2.222 7.522 7.522 0 011.63 2.456c.378.92.57 1.905.566 2.9.019 4.17-3.353 7.559-7.49 7.559zm4.119-5.658c-.228-.11-1.34-.662-1.54-.744-.21-.074-.355-.11-.51.11-.155.23-.583.744-.711.89-.128.157-.264.175-.492.056-.228-.11-.957-.358-1.813-1.13-.675-.606-1.121-1.35-1.258-1.58-.128-.23-.018-.349.1-.468.1-.101.228-.266.337-.395.11-.129.155-.23.228-.377.073-.156.037-.284-.018-.395a75.98 75.98 0 01-.693-1.69c-.182-.44-.373-.385-.51-.395h-.437a.816.816 0 00-.602.285c-.2.23-.783.78-.783 1.901s.81 2.205.92 2.352c.11.156 1.595 2.452 3.854 3.435.538.239.957.377 1.285.478.538.174 1.03.147 1.422.092.437-.065 1.34-.552 1.522-1.084.191-.533.191-.983.127-1.084-.064-.101-.2-.147-.428-.257z" fill="#1A6E78"/></g></g><defs><clipPath id="ja"><path fill="#fff" transform="translate(.267 .4)" d="M0 0h27.2v27.2H0z"/></clipPath><clipPath id="jb"><path fill="#fff" transform="translate(4.8 4.027)" d="M0 0h18.133v19.04H0z"/></clipPath></defs></svg></svg>