<svg width="16" height="12" fill="none" xmlns="http://www.w3.org/2000/svg"><mask id="a" fill="#fff"><path fill-rule="evenodd" clip-rule="evenodd" d="M15.043 1.058a1.05 1.05 0 0 1 0 1.485l-8.4 8.4a1.05 1.05 0 0 1-1.485 0l-4.2-4.2a1.05 1.05 0 0 1 1.485-1.485L5.9 8.716l7.658-7.658a1.05 1.05 0 0 1 1.485 0Z"/></mask><path fill-rule="evenodd" clip-rule="evenodd" d="M15.043 1.058a1.05 1.05 0 0 1 0 1.485l-8.4 8.4a1.05 1.05 0 0 1-1.485 0l-4.2-4.2a1.05 1.05 0 0 1 1.485-1.485L5.9 8.716l7.658-7.658a1.05 1.05 0 0 1 1.485 0Z" fill="#1F2A37"/><path d="m15.043 1.058 1.59-1.59v-.001l-1.59 1.59Zm.307.742h2.25-2.25Zm-.307.743 1.59 1.59-1.59-1.59Zm-8.4 8.4 1.59 1.59-1.59-1.59Zm-1.485 0-1.591 1.59 1.59-1.59Zm-4.2-4.2L-.661 8.306l.014.014.014.014 1.59-1.591Zm1.485-1.485 1.59-1.591-.013-.014-.014-.013-1.563 1.618ZM5.9 8.716l-1.59 1.59 1.59 1.592 1.591-1.591-1.59-1.591Zm7.658-7.658-1.59-1.591h-.001l1.59 1.59ZM14.3.75V3 .75Zm-.849 1.899A1.2 1.2 0 0 1 13.1 1.8h4.5a3.3 3.3 0 0 0-.966-2.333L13.45 2.65ZM13.1 1.8a1.2 1.2 0 0 1 .351-.848l3.183 3.181A3.3 3.3 0 0 0 17.6 1.8h-4.5Zm.351-.848-8.4 8.4 3.183 3.182 8.4-8.4L13.45.952Zm-8.4 8.4A1.2 1.2 0 0 1 5.902 9v4.5a3.3 3.3 0 0 0 2.332-.966L5.052 9.35ZM5.902 9a1.2 1.2 0 0 1 .848.351l-3.182 3.183A3.3 3.3 0 0 0 5.9 13.5V9Zm.848.352-4.2-4.2-3.182 3.182 4.2 4.2 3.182-3.182ZM2.576 5.18c.219.226.34.529.337.844l-4.5-.04A3.3 3.3 0 0 0-.66 8.306L2.576 5.18Zm.337.844a1.2 1.2 0 0 1-.351.838L-.62 3.68a3.3 3.3 0 0 0-.967 2.304l4.5.04Zm-.351.838a1.2 1.2 0 0 1-.838.351l-.04-4.5A3.3 3.3 0 0 0-.62 3.68l3.182 3.182Zm-.838.351a1.2 1.2 0 0 1-.845-.337L4.006 3.64a3.3 3.3 0 0 0-2.322-.927l.04 4.5ZM.852 6.85l3.457 3.458 3.182-3.182-3.457-3.458L.852 6.849Zm6.64 3.458 7.657-7.658-3.182-3.182-7.658 7.658 3.182 3.182Zm7.657-7.658A1.2 1.2 0 0 1 14.3 3v-4.5a3.3 3.3 0 0 0-2.333.967l3.182 3.182ZM14.3 3a1.2 1.2 0 0 1-.848-.35l3.181-3.183A3.3 3.3 0 0 0 14.3-1.5V3Z" fill="#fff" mask="url(#a)"/></svg>