<?xml version="1.0" standalone="no"?>
<!DOCTYPE svg PUBLIC "-//W3C//DTD SVG 20010904//EN"
 "http://www.w3.org/TR/2001/REC-SVG-20010904/DTD/svg10.dtd">
<svg version="1.0" xmlns="http://www.w3.org/2000/svg"
 width="1008.000000pt" height="1008.000000pt" viewBox="0 0 1008.000000 1008.000000"
 preserveAspectRatio="xMidYMid meet">
<metadata>
Created by potrace 1.14, written by Peter Selinger 2001-2017
</metadata>
<g transform="translate(0.000000,1008.000000) scale(0.100000,-0.100000)"
fill="#000000" stroke="none">
<path d="M4935 9859 c-55 -33 -107 -62 -115 -66 -8 -4 -53 -30 -100 -58 -47
-28 -92 -54 -100 -58 -8 -4 -33 -18 -55 -32 -22 -14 -47 -28 -55 -32 -8 -4
-51 -28 -95 -54 -44 -26 -152 -88 -240 -139 -216 -125 -221 -128 -290 -167
-33 -19 -76 -43 -95 -55 -19 -11 -48 -28 -65 -37 -16 -9 -41 -24 -55 -33 -14
-8 -50 -30 -80 -47 -183 -103 -170 -93 -171 -131 0 -19 0 -440 -1 -934 0 -864
1 -900 19 -914 34 -25 151 -92 162 -92 6 0 11 -5 11 -11 0 -5 5 -7 10 -4 6 3
10 2 10 -3 0 -5 14 -15 30 -22 17 -7 30 -16 30 -21 0 -5 7 -9 16 -9 9 0 28 -8
42 -19 22 -15 435 -254 535 -310 16 -9 36 -21 45 -26 9 -6 51 -30 92 -53 41
-24 89 -51 105 -61 43 -26 101 -59 165 -94 30 -17 57 -34 58 -39 2 -4 8 -8 13
-8 9 0 243 -133 264 -151 6 -4 27 1 50 15 22 12 101 58 175 101 74 43 153 88
175 99 22 12 42 24 45 27 3 3 59 36 125 74 173 98 180 101 224 129 22 15 43
26 46 26 3 0 30 16 60 35 30 19 55 31 55 27 0 -4 4 -2 8 4 4 6 38 28 77 50 38
21 78 44 87 49 10 6 68 39 129 75 62 36 128 74 148 85 20 11 80 46 134 78 l97
58 0 937 0 937 -56 33 c-31 17 -60 32 -65 32 -5 0 -9 5 -9 10 0 6 -4 10 -10
10 -5 0 -124 66 -262 147 -139 80 -268 153 -285 162 -18 8 -33 19 -33 23 0 4
-5 8 -10 8 -6 0 -40 18 -76 40 -36 22 -68 40 -70 40 -2 0 -37 20 -77 45 -41
25 -80 45 -86 45 -6 0 -11 4 -11 8 0 5 -22 19 -50 32 -27 13 -50 27 -50 32 0
4 -5 8 -11 8 -6 0 -76 38 -156 85 -80 47 -149 85 -154 85 -5 0 -9 4 -9 8 0 4
-12 13 -27 20 -16 6 -48 23 -72 37 -24 14 -45 25 -45 24 -1 0 -46 -28 -101
-60z m148 -176 c18 -10 34 -21 35 -25 2 -5 8 -8 12 -8 5 0 100 -53 212 -118
112 -65 230 -134 263 -153 33 -18 68 -38 77 -44 9 -5 68 -39 130 -75 62 -35
115 -68 116 -72 2 -4 8 -8 14 -8 6 0 63 -31 127 -68 64 -38 180 -106 259 -151
92 -54 142 -88 142 -99 1 -9 1 -381 1 -825 0 -597 -3 -812 -11 -822 -6 -8 -30
-24 -53 -35 -23 -12 -51 -27 -62 -33 -11 -7 -63 -36 -115 -66 -52 -30 -97 -57
-100 -60 -3 -4 -23 -15 -45 -26 -22 -11 -42 -23 -45 -26 -3 -3 -17 -12 -32
-20 -32 -16 -254 -144 -307 -176 -20 -12 -47 -28 -61 -36 -40 -22 -88 -50
-220 -127 -69 -40 -145 -84 -170 -98 -50 -28 -105 -61 -135 -79 -63 -40 -78
-45 -86 -31 -5 7 -9 10 -9 5 0 -4 -18 4 -40 18 -22 14 -44 25 -50 25 -5 0 -10
5 -10 10 0 6 -6 10 -14 10 -7 0 -19 7 -26 15 -6 8 -15 14 -18 13 -4 -1 -26 10
-49 25 -24 15 -45 27 -47 27 -3 0 -45 24 -94 53 -49 30 -95 57 -103 61 -8 3
-36 20 -64 37 -27 17 -62 35 -77 42 -16 6 -28 15 -28 19 0 4 -7 8 -15 8 -8 0
-15 5 -15 10 0 6 -3 9 -7 8 -5 -1 -19 5 -33 14 -25 15 -181 106 -270 156 -25
14 -47 28 -50 31 -3 3 -23 15 -45 26 -22 11 -80 43 -128 72 -48 29 -92 53 -97
53 -5 0 -15 6 -22 14 -8 7 -33 23 -55 35 -23 11 -45 25 -48 31 -5 8 -9 1381
-5 1627 0 32 0 33 120 101 19 11 103 59 185 107 83 48 166 97 185 107 19 11
123 71 231 134 108 63 201 114 207 114 6 0 12 3 14 8 2 4 84 54 183 111 99 57
205 119 235 137 64 39 71 40 113 17z"/>
<path d="M4873 9455 c-89 -52 -167 -95 -173 -95 -5 0 -10 -4 -10 -9 0 -5 -9
-12 -19 -16 -11 -3 -36 -17 -55 -30 -20 -13 -36 -22 -36 -19 0 3 -19 -8 -42
-24 -24 -16 -97 -59 -163 -97 -66 -37 -174 -100 -240 -139 -66 -39 -122 -71
-125 -71 -3 0 -64 -36 -137 -79 l-132 -78 -3 -89 c-2 -50 0 -100 3 -112 3 -12
3 -32 0 -45 -3 -12 -4 -63 -1 -113 3 -50 3 -92 2 -94 -2 -2 -3 -57 -2 -122 0
-65 1 -125 1 -133 -1 -35 0 -202 0 -208 1 -4 1 -11 0 -17 -1 -5 -1 -62 -1
-125 1 -63 1 -121 1 -127 0 -7 0 -43 0 -80 0 -89 0 -110 -2 -120 -1 -4 -1 -33
0 -65 1 -53 3 -57 31 -70 17 -7 30 -16 30 -20 0 -5 4 -8 9 -8 5 0 48 -22 96
-50 48 -27 91 -50 96 -50 5 0 9 -4 9 -10 0 -5 4 -10 9 -10 7 0 59 -28 116 -63
51 -32 100 -60 150 -87 79 -43 99 -54 105 -60 4 -4 39 -24 95 -54 11 -6 27
-16 35 -22 8 -6 40 -25 70 -41 30 -17 95 -53 143 -82 49 -28 93 -51 98 -51 5
0 9 -4 9 -10 0 -5 6 -10 14 -10 7 0 19 -7 26 -15 6 -8 15 -13 18 -12 4 1 35
-15 70 -36 35 -20 68 -37 73 -37 12 0 96 47 119 66 8 7 18 13 23 13 4 0 17 7
30 15 34 21 206 121 262 151 28 16 86 49 130 75 81 47 438 254 507 294 21 11
81 45 133 75 76 43 95 59 92 73 -3 10 -2 20 1 22 4 2 5 75 2 161 -3 86 -3 158
0 160 3 2 3 56 0 120 -3 64 -3 118 0 120 3 2 3 56 0 120 -3 64 -3 118 0 120 3
2 3 56 0 120 -3 64 -3 118 0 120 3 2 3 56 0 120 -3 64 -3 118 0 120 3 2 4 44
2 94 l-3 91 -42 24 c-23 13 -121 69 -217 125 -96 55 -180 105 -187 111 -7 5
-14 10 -17 10 -2 0 -44 23 -93 51 -48 28 -101 59 -118 69 -16 9 -86 50 -155
90 -69 40 -149 86 -177 102 -29 16 -55 34 -59 39 -3 5 -9 7 -14 4 -4 -3 -13 2
-20 10 -7 8 -16 15 -21 15 -4 0 -45 22 -91 50 -46 27 -85 50 -88 50 -3 0 -78
-43 -167 -95z m402 -377 c39 -23 76 -46 84 -51 7 -6 20 -12 29 -13 8 -2 18 -7
21 -12 3 -5 31 -22 61 -38 30 -16 59 -33 65 -37 14 -11 317 -187 321 -187 2 0
28 -16 58 -35 30 -19 59 -35 63 -35 4 0 21 -11 37 -23 l29 -24 -1 -574 c0
-316 -1 -577 -1 -582 -1 -4 -11 -12 -23 -18 -13 -5 -41 -21 -63 -34 -22 -14
-49 -29 -60 -35 -11 -5 -41 -22 -66 -37 -25 -16 -109 -64 -185 -108 -77 -44
-140 -83 -142 -87 -2 -5 -7 -8 -12 -8 -4 0 -108 -58 -230 -130 -165 -95 -227
-127 -239 -120 -9 4 -61 35 -116 67 -55 33 -107 62 -115 66 -8 4 -31 17 -51
30 -20 12 -128 75 -240 140 -234 136 -233 134 -279 163 -19 11 -62 36 -95 54
-33 18 -68 38 -78 44 -16 10 -17 47 -15 595 l3 584 160 94 c88 52 167 97 175
101 8 3 38 20 65 37 28 17 57 35 65 38 8 4 29 15 45 26 30 18 72 42 143 82 20
12 38 23 40 24 2 2 -11 29 -28 60 -26 48 -29 56 -13 51 10 -3 45 -8 78 -11 33
-4 71 -8 85 -11 14 -2 45 -7 70 -10 54 -7 62 -17 44 -53 -11 -22 -34 -75 -39
-91 -2 -5 -12 -31 -43 -107 -19 -47 -26 -52 -36 -25 -8 22 -31 61 -43 73 -8 8
-165 -74 -253 -131 -8 -5 -40 -23 -70 -40 -82 -44 -115 -64 -118 -72 -2 -5 -8
-8 -13 -8 -4 0 -43 -20 -85 -45 -41 -25 -79 -45 -84 -45 -12 0 -23 -37 -15
-50 3 -5 3 -10 -2 -10 -9 0 -9 -67 0 -76 3 -3 2 -17 -3 -30 -6 -14 -6 -26 0
-29 6 -3 6 -15 0 -30 -6 -15 -6 -27 0 -30 6 -3 6 -15 0 -30 -6 -15 -6 -27 0
-30 6 -3 6 -15 0 -30 -6 -15 -6 -27 0 -30 6 -3 6 -15 0 -30 -6 -15 -6 -27 0
-30 6 -3 6 -15 0 -30 -6 -15 -6 -27 0 -30 6 -3 6 -15 0 -30 -6 -15 -6 -27 0
-30 6 -3 6 -15 0 -30 -6 -15 -6 -27 0 -30 6 -3 6 -15 0 -30 -5 -13 -6 -26 -2
-29 8 -5 6 -85 -2 -93 -3 -3 -1 -15 4 -27 4 -13 4 -29 -1 -39 -6 -9 -6 -17 -1
-17 10 0 6 -65 -4 -82 -4 -6 -3 -8 3 -5 7 4 8 -7 3 -33 -5 -25 -3 -45 4 -54 6
-8 99 -64 206 -126 107 -62 210 -121 228 -131 17 -11 47 -27 65 -37 17 -11
108 -63 201 -117 l170 -98 35 19 c20 10 47 26 61 35 14 9 50 30 80 47 30 16
106 60 169 96 62 36 117 66 122 66 5 0 9 4 9 9 0 5 9 13 20 16 12 4 67 34 123
67 56 34 118 70 137 81 118 66 118 66 122 107 2 22 0 40 -5 40 -4 0 -5 5 -1
11 9 16 11 109 1 109 -5 0 -5 4 -2 10 9 15 11 350 2 350 -5 0 -5 5 -1 11 9 16
11 109 1 109 -5 0 -5 5 -2 11 13 20 6 323 -8 332 -6 4 -70 42 -142 84 -71 42
-249 146 -395 231 -146 86 -275 160 -287 166 -13 6 -23 18 -24 26 -1 17 -1
109 0 127 1 8 33 -6 79 -33 42 -25 109 -64 147 -86z m-361 -727 c17 -17 36
-44 42 -60 16 -42 11 -130 -10 -173 -17 -35 -118 -138 -181 -185 l-30 -22 45
-1 c25 -1 78 -1 118 -1 71 -1 72 -1 73 -27 0 -15 2 -37 3 -50 2 -13 -2 -26 -8
-30 -19 -12 -396 -10 -397 2 -7 61 2 92 34 121 18 16 70 64 116 105 96 87 123
126 123 177 0 77 -87 97 -144 33 -15 -16 -32 -30 -37 -30 -5 0 -23 14 -41 30
-25 23 -31 35 -26 54 8 31 89 91 141 103 58 14 138 -7 179 -46z m524 40 c9 -1
12 -43 12 -177 0 -171 1 -176 20 -171 11 3 20 1 20 -5 0 -5 5 -6 10 -3 11 7
12 2 12 -45 0 -44 -1 -50 -9 -49 -5 1 -19 1 -33 0 -25 -1 -26 -2 -24 -72 2
-84 0 -86 -100 -80 -10 1 -14 15 -13 49 0 26 -1 61 -2 77 l-1 30 -107 0 -108
0 -3 51 c-3 45 3 63 48 148 28 52 64 119 80 146 17 28 30 54 30 59 0 4 8 16
18 27 17 18 60 22 150 15z"/>
<path d="M5273 8149 c-32 -63 -47 -102 -40 -104 17 -6 38 -8 72 -6 l30 1 -1
100 c0 55 -2 102 -5 104 -2 3 -27 -40 -56 -95z"/>
<path d="M3260 6936 c-59 -35 -225 -132 -300 -174 -25 -14 -61 -35 -80 -47
-19 -12 -42 -25 -50 -28 -8 -4 -33 -18 -55 -32 -22 -14 -47 -28 -55 -32 -8 -3
-23 -13 -32 -21 -10 -8 -18 -11 -18 -6 0 5 -4 4 -8 -1 -4 -6 -105 -67 -225
-135 -119 -69 -231 -133 -248 -143 -287 -166 -413 -237 -420 -237 -5 0 -9 -4
-9 -10 0 -5 -6 -10 -14 -10 -42 0 -41 12 -41 -966 l0 -933 37 -17 c21 -9 38
-21 38 -26 0 -4 9 -8 20 -8 11 0 20 -3 20 -8 0 -4 17 -16 38 -27 20 -11 80
-45 132 -75 52 -31 102 -59 110 -63 8 -4 31 -17 50 -28 125 -76 343 -199 351
-199 5 0 9 -4 9 -10 0 -5 4 -10 9 -10 5 0 98 -52 206 -115 109 -63 200 -115
202 -115 2 0 29 -16 59 -35 30 -19 58 -35 63 -35 5 0 11 -3 13 -7 2 -5 21 -17
43 -29 59 -31 135 -74 177 -101 21 -12 40 -23 43 -23 3 0 50 25 103 56 219
128 356 207 395 229 23 13 104 60 181 104 76 45 142 81 147 81 5 0 9 5 9 10 0
6 4 10 10 10 8 0 118 63 545 310 17 10 64 37 105 60 41 24 87 51 101 61 l25
18 0 935 -1 936 -150 86 c-82 48 -166 95 -185 106 -19 11 -75 44 -125 73 -49
29 -110 64 -135 77 -25 14 -96 55 -158 92 -62 36 -132 77 -155 90 -61 34 -82
46 -409 235 -163 94 -300 171 -305 170 -4 0 -33 -15 -63 -33z m110 -201 c22
-14 42 -25 44 -25 3 0 50 -27 104 -60 55 -33 105 -60 111 -60 6 0 11 -4 11
-10 0 -5 6 -10 14 -10 7 0 19 -7 26 -15 7 -8 16 -13 20 -10 5 3 11 1 15 -4 3
-6 38 -28 78 -51 39 -22 79 -45 87 -50 14 -9 73 -43 155 -90 17 -9 102 -59
190 -110 183 -106 211 -122 263 -151 20 -12 42 -25 47 -29 11 -9 116 -67 152
-84 13 -6 23 -14 23 -18 0 -5 6 -8 14 -8 8 0 18 -6 23 -12 4 -7 8 -267 9 -578
0 -311 3 -571 7 -577 4 -6 4 -14 0 -16 -10 -6 -9 -290 1 -305 3 -6 3 -13 -2
-16 -4 -3 -7 -43 -6 -89 l2 -84 -31 -17 c-18 -9 -45 -24 -62 -35 -36 -22 -267
-156 -380 -220 -44 -25 -81 -49 -83 -53 -2 -4 -8 -8 -14 -8 -5 0 -117 -63
-249 -140 -132 -77 -245 -140 -250 -140 -5 0 -9 -4 -9 -9 0 -5 -8 -11 -17 -14
-10 -3 -40 -20 -68 -36 -27 -17 -57 -34 -65 -37 -8 -4 -23 -14 -32 -22 -10 -8
-18 -11 -18 -6 0 5 -4 4 -8 -1 -4 -6 -39 -29 -79 -52 -60 -34 -74 -39 -84 -27
-6 8 -17 14 -24 14 -7 0 -18 7 -25 15 -7 8 -16 12 -21 9 -5 -3 -9 -1 -9 4 0 5
-8 12 -17 15 -10 3 -39 19 -65 34 -65 39 -205 121 -258 151 -25 14 -110 63
-190 110 -80 47 -165 96 -190 110 -25 13 -109 62 -187 108 -78 46 -146 84
-151 84 -5 0 -17 9 -27 20 -10 11 -21 17 -26 15 -4 -3 -10 -1 -13 4 -4 5 -45
31 -92 56 -48 26 -94 55 -103 64 -15 15 -17 85 -16 839 l0 823 40 22 c22 12
42 24 45 27 4 5 90 55 220 127 25 14 50 29 55 33 6 5 37 23 70 41 33 18 62 35
65 38 3 3 23 15 45 26 22 11 42 22 45 26 3 3 12 9 20 12 8 4 33 18 55 32 22
14 50 30 63 35 12 5 35 18 50 29 15 10 58 36 96 57 92 51 137 77 368 211 106
62 194 113 196 113 1 0 20 -11 42 -25z"/>
<path d="M3300 6590 c0 -5 -7 -10 -15 -10 -8 0 -15 -5 -15 -12 0 -6 -3 -9 -6
-6 -3 4 -41 -16 -85 -43 -44 -27 -83 -49 -85 -49 -3 0 -29 -16 -59 -35 -30
-19 -55 -31 -55 -27 0 4 -4 2 -8 -4 -4 -6 -38 -28 -77 -50 -38 -21 -78 -43
-87 -49 -10 -5 -84 -48 -165 -95 -81 -47 -153 -86 -160 -88 -7 -2 -13 -8 -13
-13 0 -5 -4 -9 -9 -9 -5 0 -70 -36 -145 -80 -76 -44 -141 -80 -146 -80 -6 0
-10 -4 -10 -8 0 -4 -16 -14 -35 -21 -19 -7 -35 -17 -35 -22 0 -5 -6 -9 -12 -9
-7 0 -22 -7 -33 -16 -19 -14 -20 -29 -20 -761 0 -777 0 -773 40 -773 7 0 15
-3 17 -7 2 -5 23 -19 48 -32 25 -14 63 -36 85 -50 22 -14 42 -26 45 -26 3 0
16 -8 30 -16 64 -40 152 -89 161 -89 5 0 9 -4 9 -10 0 -5 6 -10 13 -10 8 0 24
-9 37 -20 13 -11 26 -20 30 -20 4 0 59 -30 121 -67 158 -92 191 -111 214 -123
11 -6 38 -22 60 -35 22 -14 54 -32 70 -40 17 -9 39 -21 50 -28 28 -17 83 -50
135 -79 25 -14 66 -38 91 -52 l47 -27 58 35 c33 19 62 33 65 33 4 -1 15 5 25
14 11 9 127 79 259 155 132 76 294 169 360 207 66 39 134 77 150 87 17 9 56
32 88 51 98 57 119 69 202 117 44 25 82 47 85 50 7 5 7 1512 0 1512 -6 0 -90
48 -393 224 -82 47 -153 86 -158 86 -5 0 -9 5 -9 10 0 6 -4 10 -10 10 -8 0
-124 64 -180 100 -38 23 -127 76 -150 87 -14 7 -32 17 -40 23 -8 5 -55 33
-105 61 -49 28 -106 61 -125 72 -112 65 -150 80 -150 57z m250 -882 c14 -13
43 -47 65 -75 56 -71 122 -108 211 -120 53 -6 154 14 154 31 0 25 29 37 92 38
100 1 107 -1 120 -24 14 -27 19 -279 5 -320 -12 -38 -48 -47 -169 -39 -9 1
-27 12 -40 25 -56 59 -212 52 -318 -13 -41 -25 -104 -97 -128 -144 -40 -81
-43 -82 -224 -82 l-160 0 -24 30 c-13 17 -24 35 -24 40 0 6 -6 21 -13 35 -7
14 -21 48 -31 75 -40 107 -87 150 -152 137 -28 -5 -114 -60 -198 -126 -107
-84 -262 -241 -337 -340 -51 -69 -64 -59 -64 49 l1 90 62 124 c88 176 181 311
284 414 48 48 92 87 97 87 5 0 16 6 23 14 24 23 119 68 193 91 63 20 95 22
310 24 241 2 241 2 265 -21z m-77 -874 c-13 -79 -21 -665 -12 -873 l4 -75 -68
-39 -68 -39 -40 18 c-21 11 -39 22 -39 27 0 4 -5 7 -11 7 -17 0 -70 41 -64 50
22 36 23 698 1 896 l-5 40 152 -1 c89 -1 151 -5 150 -11z"/>
<path d="M6715 6960 c-2 -3 -71 -44 -152 -90 -81 -46 -150 -86 -153 -90 -3 -3
-34 -21 -70 -39 -36 -19 -72 -40 -81 -47 -8 -8 -19 -14 -22 -14 -4 0 -36 -18
-72 -40 -36 -22 -65 -37 -65 -34 0 2 -6 0 -12 -6 -15 -12 -105 -65 -317 -187
-46 -26 -96 -55 -110 -63 -14 -9 -57 -33 -96 -55 -38 -21 -72 -42 -75 -45 -3
-4 -9 -9 -15 -11 -9 -4 -156 -86 -195 -109 -8 -5 -44 -26 -80 -46 -73 -42 -82
-52 -76 -76 2 -10 0 -18 -5 -18 -6 0 -6 -7 0 -18 7 -13 7 -22 0 -29 -8 -8 -7
-13 0 -17 8 -5 8 -13 1 -27 -8 -13 -7 -19 0 -19 8 0 8 -6 0 -20 -8 -14 -8 -20
0 -20 8 0 8 -6 0 -20 -8 -14 -8 -20 0 -20 8 0 8 -6 0 -20 -8 -14 -8 -20 0 -20
8 0 8 -6 0 -20 -8 -14 -8 -20 0 -20 8 0 8 -6 0 -20 -8 -14 -8 -20 0 -20 8 0 8
-6 0 -20 -8 -14 -8 -20 0 -20 8 0 8 -6 0 -20 -8 -14 -8 -20 0 -20 8 0 8 -6 0
-20 -8 -14 -8 -20 0 -20 8 0 8 -6 0 -20 -8 -14 -8 -20 0 -20 8 0 8 -6 0 -20
-8 -14 -8 -20 0 -20 8 0 8 -6 0 -20 -8 -14 -8 -20 0 -20 8 0 8 -6 0 -20 -8
-14 -8 -20 0 -20 8 0 8 -6 0 -20 -8 -14 -8 -20 0 -20 8 0 8 -6 0 -20 -8 -14
-8 -20 0 -20 8 0 8 -6 0 -20 -8 -14 -8 -20 0 -20 8 0 8 -6 0 -20 -8 -14 -8
-20 0 -20 8 0 8 -6 0 -20 -8 -14 -8 -20 0 -20 8 0 8 -6 0 -20 -8 -14 -8 -20 0
-20 8 0 8 -6 0 -20 -8 -14 -8 -20 0 -20 8 0 8 -6 0 -20 -8 -14 -8 -20 0 -20 8
0 8 -6 0 -20 -8 -14 -8 -20 0 -20 8 0 8 -6 0 -20 -8 -14 -8 -20 0 -20 6 0 8
-5 5 -11 -10 -15 -12 -79 -3 -79 3 0 3 -13 -2 -30 -5 -17 -5 -30 0 -30 5 0 5
-13 0 -30 -5 -17 -5 -30 0 -30 5 0 5 -13 0 -30 -5 -17 -5 -30 0 -30 5 0 5 -13
0 -30 -5 -17 -5 -30 0 -30 5 0 5 -13 0 -30 -5 -17 -5 -30 0 -30 5 0 5 -13 0
-30 -5 -17 -5 -30 0 -30 5 0 5 -13 0 -30 -5 -17 -5 -30 0 -30 5 0 5 -13 0 -30
-5 -17 -5 -30 0 -30 5 0 5 -13 0 -30 -5 -17 -5 -30 0 -30 5 0 5 -13 0 -30 -5
-17 -5 -30 0 -30 5 0 5 -13 0 -30 -5 -18 -5 -30 0 -30 6 0 6 -10 0 -25 -6 -15
-6 -27 0 -30 5 -3 7 -11 4 -18 -3 -8 49 -43 133 -92 76 -43 235 -135 353 -203
118 -69 229 -133 247 -143 17 -10 50 -29 72 -43 22 -15 45 -26 49 -26 5 0 20
-8 33 -18 13 -11 49 -32 79 -49 30 -16 71 -39 90 -50 19 -11 51 -29 70 -39 19
-11 40 -25 48 -31 7 -7 20 -13 28 -13 8 0 14 -4 14 -10 0 -5 4 -10 10 -10 5 0
39 -18 75 -40 36 -22 67 -40 70 -40 2 0 38 -20 78 -45 41 -25 79 -45 85 -45 6
0 12 -3 14 -7 2 -5 18 -16 35 -26 l33 -18 67 37 c38 21 78 42 90 48 13 6 23
14 23 19 0 4 4 7 10 7 5 0 33 14 62 31 131 78 222 129 229 129 5 0 9 5 9 10 0
6 9 10 20 10 11 0 20 4 20 8 0 5 12 15 28 23 15 7 63 35 107 60 215 125 348
199 356 199 5 0 9 3 9 8 0 4 30 23 68 42 37 19 69 38 72 41 3 3 41 26 85 51
190 108 280 160 304 177 14 10 35 21 46 25 20 6 20 14 20 945 l0 938 -154 89
c-84 49 -170 98 -190 109 -20 11 -64 37 -99 58 -35 20 -67 37 -73 37 -5 0 -9
5 -9 10 0 6 -5 10 -11 10 -12 0 -145 76 -170 97 -9 7 -19 10 -22 6 -4 -3 -7
-1 -7 5 0 7 -5 12 -10 12 -6 0 -35 16 -65 35 -30 19 -55 31 -55 27 0 -4 -4 -2
-8 3 -8 11 -23 21 -147 91 -44 25 -93 53 -110 63 -16 10 -48 28 -70 41 -57 32
-266 153 -290 167 -11 7 -31 18 -45 25 -14 6 -36 19 -50 29 -25 16 -58 21 -65
9z m73 -226 c50 -28 279 -160 522 -302 80 -47 170 -99 200 -115 30 -16 61 -34
68 -40 18 -14 93 -56 125 -70 15 -6 27 -15 27 -19 0 -4 4 -8 9 -8 6 0 65 -33
133 -73 68 -40 148 -87 178 -104 110 -61 118 -67 122 -93 2 -14 3 -387 3 -830
l-1 -805 -79 -47 c-44 -26 -87 -51 -95 -55 -8 -4 -58 -32 -110 -63 -52 -31
-102 -59 -110 -63 -8 -4 -28 -15 -45 -26 -16 -10 -118 -69 -225 -131 -107 -62
-206 -119 -220 -128 -14 -9 -26 -14 -26 -11 -1 2 -10 -3 -20 -12 -11 -9 -44
-29 -74 -45 -30 -16 -59 -33 -65 -37 -28 -22 -175 -104 -175 -99 0 4 -4 2 -8
-4 -4 -6 -27 -21 -52 -35 -25 -13 -47 -26 -50 -29 -3 -3 -22 -14 -43 -25 -32
-17 -40 -18 -58 -6 -12 7 -108 62 -213 123 -231 134 -246 142 -293 169 -137
78 -299 175 -301 181 -2 4 -9 8 -16 8 -7 0 -54 25 -104 55 -50 30 -96 55 -102
55 -5 0 -10 5 -10 10 0 6 -6 10 -14 10 -7 0 -19 7 -26 15 -7 9 -15 13 -18 11
-3 -3 -17 3 -31 13 -39 28 -114 71 -133 78 -10 3 -18 9 -18 14 0 5 -5 9 -11 9
-6 0 -35 15 -65 32 l-54 33 0 827 0 828 33 20 c17 10 37 22 43 27 5 4 26 16
45 27 19 10 59 32 89 49 30 16 60 33 65 38 21 16 208 119 216 119 5 0 9 4 9 8
0 4 27 21 60 37 33 17 60 33 60 38 0 4 4 7 10 7 5 0 39 18 75 40 36 22 70 40
75 40 6 0 10 4 10 9 0 5 10 13 22 17 12 3 45 21 72 38 49 30 70 42 146 83 19
11 97 56 174 101 76 45 140 82 143 82 2 0 21 11 41 25 20 14 38 25 40 25 2 0
24 -12 50 -26z"/>
<path d="M6685 6570 c-27 -16 -61 -35 -75 -42 -14 -8 -84 -49 -157 -91 -72
-42 -136 -77 -142 -77 -6 0 -11 -4 -11 -10 0 -5 -7 -10 -15 -10 -8 0 -15 -5
-15 -12 0 -6 -3 -9 -6 -5 -3 3 -30 -10 -59 -29 -30 -19 -59 -34 -65 -34 -5 0
-10 -4 -10 -10 0 -5 -4 -10 -10 -10 -5 0 -47 -22 -94 -50 -47 -27 -89 -50 -95
-50 -6 0 -11 -4 -11 -10 0 -5 -4 -10 -9 -10 -4 0 -60 -30 -122 -67 -63 -36
-132 -76 -155 -89 -22 -12 -59 -34 -82 -48 -23 -14 -44 -26 -48 -26 -3 0 -19
-9 -34 -20 l-28 -20 0 -747 c1 -744 2 -773 31 -773 3 0 45 -23 94 -51 48 -28
102 -60 120 -70 17 -10 50 -29 72 -43 22 -15 43 -26 45 -26 3 0 46 -25 97 -55
50 -30 93 -55 95 -55 2 0 32 -17 66 -38 35 -21 88 -52 118 -69 77 -42 241
-138 327 -189 40 -24 75 -44 77 -44 3 0 39 -21 81 -46 l75 -46 140 81 c76 45
141 81 143 81 2 0 46 25 98 57 51 31 116 69 144 85 106 60 191 109 205 118 67
43 382 220 390 220 5 0 10 4 10 8 0 5 18 17 40 27 22 10 45 24 51 31 6 8 15
11 20 8 5 -3 9 0 9 5 0 6 6 11 14 11 37 0 38 9 38 772 l0 742 -27 23 c-14 13
-33 23 -41 23 -8 0 -14 5 -14 10 0 6 -4 10 -10 10 -5 0 -33 14 -62 31 -62 37
-105 62 -168 97 -25 14 -57 33 -72 43 -14 11 -28 19 -31 19 -3 0 -51 27 -107
60 -56 33 -106 60 -111 60 -5 0 -9 5 -9 10 0 6 -6 10 -13 10 -7 0 -36 16 -65
35 -28 20 -52 32 -52 29 0 -4 -8 0 -17 8 -10 8 -64 41 -121 73 -56 31 -105 61
-108 66 -3 5 -10 7 -15 4 -5 -4 -9 -1 -9 4 0 6 -5 11 -10 11 -6 0 -36 16 -66
35 -30 19 -56 35 -59 35 -3 0 -27 14 -53 30 -27 17 -53 30 -58 30 -5 -1 -31
-14 -59 -30z m391 -922 c32 -33 109 -148 100 -148 -3 0 2 -17 10 -37 22 -52
26 -70 28 -138 4 -95 -33 -189 -101 -260 -70 -73 -146 -185 -158 -235 -4 -16
-25 -120 -30 -145 -9 -51 -20 -256 -31 -595 -4 -135 -10 -207 -18 -212 -6 -4
-38 -23 -71 -42 l-60 -35 -82 47 -81 46 4 66 c17 308 22 690 9 755 -11 61 -8
50 -38 129 -9 25 -62 108 -89 141 -5 5 -20 24 -34 40 -141 168 -164 345 -72
548 43 93 79 92 91 -3 13 -100 19 -137 28 -172 13 -49 61 -87 114 -88 39 -1
52 1 145 15 25 4 55 8 67 9 12 0 24 4 28 8 4 4 13 4 21 1 25 -9 99 35 116 70
15 31 15 47 3 142 -16 134 -16 153 2 157 21 5 56 -17 99 -64z"/>
<path d="M1590 3991 c-40 -21 -138 -77 -160 -91 -23 -14 -184 -104 -195 -109
-5 -2 -14 -8 -20 -13 -19 -16 -476 -278 -486 -278 -5 0 -9 -4 -9 -10 0 -5 -4
-10 -8 -10 -5 0 -119 -63 -253 -141 -134 -78 -269 -155 -299 -172 -30 -17 -57
-35 -58 -39 -2 -5 -7 -6 -10 -4 -4 2 -25 -8 -47 -23 l-40 -27 -1 -936 -1 -936
164 -94 c91 -51 171 -99 179 -106 8 -7 14 -11 14 -8 0 3 16 -6 36 -19 20 -14
43 -25 50 -25 7 0 14 -4 16 -8 3 -7 43 -31 218 -130 25 -14 61 -35 80 -47 19
-12 55 -33 80 -47 56 -31 71 -40 310 -178 107 -62 209 -121 225 -131 17 -11
37 -22 45 -26 8 -3 47 -26 87 -50 39 -24 76 -43 82 -43 6 0 11 -4 11 -10 0 -5
6 -10 14 -10 14 0 146 67 156 79 3 4 16 12 30 19 14 7 41 22 60 33 19 12 109
64 200 117 91 52 188 108 215 124 28 16 58 32 68 35 9 3 17 9 17 14 0 5 4 9 9
9 5 0 72 37 150 83 77 45 158 91 178 103 141 78 521 299 533 310 14 12 16 121
15 943 0 607 -3 933 -10 940 -14 13 -278 166 -315 183 -17 7 -30 16 -30 20 0
5 -7 8 -15 8 -8 0 -15 5 -15 10 0 6 -4 10 -9 10 -9 0 -465 260 -598 341 -35
21 -72 40 -83 44 -11 3 -20 11 -20 17 0 6 -3 8 -6 5 -4 -4 -19 2 -33 12 -23
16 -480 281 -484 281 -1 0 -18 -8 -37 -19z m275 -335 c126 -73 246 -143 265
-153 19 -11 73 -43 120 -70 47 -28 105 -61 130 -75 25 -14 113 -64 195 -113
218 -127 240 -139 243 -137 1 1 8 -2 15 -8 6 -6 59 -39 117 -73 l105 -62 0
-830 0 -830 -30 -14 c-16 -8 -31 -18 -33 -23 -2 -4 -9 -8 -14 -8 -6 0 -32 -13
-57 -28 -46 -29 -151 -90 -228 -133 -23 -13 -77 -45 -120 -70 -43 -25 -166
-96 -273 -159 -107 -62 -211 -122 -230 -133 -19 -11 -52 -30 -72 -41 -20 -12
-110 -64 -200 -116 -171 -100 -188 -108 -188 -91 0 6 -5 11 -11 11 -6 0 -140
75 -297 166 -158 92 -300 175 -317 184 -16 9 -52 30 -80 47 -27 16 -57 33 -65
37 -8 4 -33 18 -55 32 -22 13 -52 30 -67 36 -16 7 -28 16 -28 20 0 4 -4 8 -9
8 -5 0 -39 18 -75 40 -36 22 -68 40 -71 40 -2 0 -33 17 -67 38 -60 37 -87 53
-203 118 -27 15 -55 33 -61 39 -8 8 -12 237 -12 826 0 447 2 822 4 832 3 9 9
17 14 17 5 0 44 21 87 46 43 25 107 62 143 82 36 20 71 42 78 49 7 7 17 13 22
13 5 0 49 24 97 53 49 30 111 66 138 82 28 15 77 43 110 62 33 19 80 46 105
60 25 14 56 32 70 41 14 9 28 15 33 14 4 -1 7 2 7 8 0 5 7 10 15 10 8 0 15 5
15 10 0 6 5 10 10 10 6 0 65 32 133 71 67 40 147 85 177 102 30 17 57 33 60
36 8 10 104 60 115 61 5 0 113 -60 240 -134z"/>
<path d="M1360 3489 c-140 -82 -266 -155 -280 -163 -24 -12 -119 -67 -185
-106 -16 -10 -68 -39 -115 -66 -47 -26 -87 -51 -90 -54 -3 -3 -23 -14 -45 -25
-22 -11 -46 -26 -53 -32 -7 -7 -18 -13 -24 -13 -6 0 -19 -6 -27 -14 -9 -8 -38
-26 -66 -41 -27 -14 -68 -37 -90 -51 -22 -13 -45 -27 -50 -29 -7 -4 -11 -247
-10 -758 l0 -752 25 -13 c14 -7 42 -23 63 -35 57 -34 327 -189 367 -212 19
-11 63 -37 98 -58 35 -20 65 -37 68 -37 3 0 25 -13 49 -30 24 -16 46 -30 50
-30 3 0 31 -16 61 -35 30 -19 61 -35 68 -35 8 0 16 -3 18 -8 3 -7 125 -82 134
-82 2 0 23 -12 47 -27 57 -36 246 -143 252 -143 5 0 258 144 383 219 29 17 54
31 56 31 2 0 45 25 95 55 51 30 94 55 96 55 3 0 29 16 59 35 30 19 59 35 65
35 5 0 16 6 23 14 8 7 30 21 48 31 19 10 89 50 155 88 66 39 134 78 150 87 84
45 151 86 160 97 7 9 10 272 9 751 -1 405 -2 742 -3 748 0 6 -16 18 -33 27
-41 21 -88 47 -210 120 -53 31 -100 57 -103 57 -4 0 -26 14 -50 30 -24 17 -46
30 -48 30 -2 0 -94 52 -203 116 -110 64 -217 126 -239 139 -22 12 -56 31 -75
43 -138 80 -336 192 -340 191 -3 0 -120 -68 -260 -150z m923 -743 c43 -8 99
-61 113 -108 6 -18 10 -99 9 -180 -1 -140 -2 -148 -27 -186 -15 -21 -44 -48
-66 -59 -39 -19 -62 -20 -764 -19 -807 1 -756 -3 -813 72 -29 38 -29 39 -30
188 -1 83 3 166 7 184 13 47 69 99 119 109 49 10 1400 9 1452 -1z m278 -301
c15 -26 30 -67 34 -89 4 -23 10 -48 12 -56 11 -40 11 -281 0 -316 -18 -59 -82
-119 -147 -139 -30 -9 -66 -18 -80 -21 -14 -2 -36 -9 -50 -14 -21 -8 -194 -57
-225 -64 -5 -2 -30 -8 -55 -15 -25 -8 -52 -15 -60 -16 -8 -2 -16 -4 -17 -5 -2
-2 -6 -3 -10 -5 -5 -1 -20 -5 -34 -9 -14 -4 -32 -9 -40 -10 -8 -2 -21 -5 -29
-8 -8 -3 -48 -16 -88 -28 -104 -31 -108 -39 -107 -229 0 -128 -2 -151 -15
-152 -8 0 -30 -1 -48 -2 l-33 -2 2 165 c2 260 14 274 319 355 8 2 80 22 160
45 80 22 152 42 160 44 8 2 35 10 60 17 25 7 48 13 53 15 4 1 8 2 10 3 1 2 12
4 24 7 60 11 128 42 147 67 22 30 23 72 12 385 -6 149 1 159 45 77z m-844
-1308 c15 -14 18 -37 19 -126 l0 -108 -56 -31 -56 -31 -61 35 -61 34 1 110 c2
134 4 136 118 135 61 0 83 -4 96 -18z"/>
<path d="M4860 3908 c-96 -56 -200 -115 -230 -132 -30 -16 -61 -36 -68 -43 -7
-7 -17 -13 -22 -13 -5 0 -57 -29 -117 -64 -59 -35 -111 -63 -114 -62 -4 0 -15
-6 -25 -15 -11 -9 -44 -29 -74 -45 -30 -16 -57 -32 -60 -35 -3 -3 -30 -19 -60
-36 -54 -29 -116 -65 -155 -91 -11 -6 -27 -15 -35 -19 -8 -4 -37 -20 -65 -36
-193 -114 -306 -177 -315 -177 -5 0 -10 -3 -10 -8 0 -4 -20 -18 -45 -31 -25
-13 -45 -29 -46 -35 0 -14 0 -1825 0 -1848 1 -14 76 -64 188 -125 23 -12 126
-72 311 -180 53 -32 99 -58 102 -58 3 0 16 -8 30 -16 25 -16 249 -146 323
-188 79 -45 113 -64 142 -82 17 -10 39 -23 50 -29 11 -6 38 -21 60 -34 22 -13
60 -35 85 -48 25 -14 107 -62 183 -107 76 -44 142 -81 147 -81 8 0 265 147
323 184 15 10 27 14 27 10 0 -5 4 -4 8 1 7 10 218 136 331 198 31 17 58 33 61
36 3 3 23 15 45 26 22 11 42 22 45 25 3 3 91 54 195 114 105 60 204 117 220
127 17 11 39 23 50 29 11 5 38 21 60 35 22 14 47 28 55 32 8 4 57 31 108 61
l92 54 0 938 0 937 -80 47 c-44 25 -84 46 -90 46 -5 0 -10 5 -10 10 0 6 -6 10
-13 10 -7 0 -19 6 -25 13 -7 6 -16 12 -20 12 -7 1 -180 100 -244 141 -21 13
-39 24 -42 24 -2 0 -48 26 -103 58 -54 32 -120 72 -148 87 -82 47 -155 89
-194 112 -20 11 -47 28 -61 35 -14 8 -43 25 -65 38 -22 12 -60 34 -85 48 -25
14 -78 45 -118 69 -41 24 -76 43 -80 43 -3 0 -13 6 -21 14 -9 7 -47 31 -86 52
-38 20 -83 46 -100 56 -16 10 -32 18 -35 18 -3 0 -84 -46 -180 -102z m260
-152 c30 -16 57 -32 60 -35 3 -4 23 -16 45 -28 22 -11 54 -29 72 -40 17 -10
62 -36 100 -57 37 -21 76 -46 87 -55 10 -9 20 -15 22 -13 2 1 14 -4 27 -12 61
-38 149 -86 158 -86 5 0 9 -3 9 -7 0 -5 10 -13 23 -19 23 -11 102 -55 149 -83
14 -9 57 -34 95 -56 37 -22 77 -45 88 -52 11 -7 27 -16 35 -20 46 -22 155 -88
158 -95 2 -4 8 -8 13 -8 5 0 56 -27 112 -60 l102 -60 1 -829 1 -829 -66 -38
c-36 -21 -75 -43 -86 -50 -58 -32 -386 -222 -405 -234 -8 -6 -36 -21 -62 -35
-26 -13 -49 -29 -53 -35 -4 -6 -11 -8 -16 -5 -5 4 -9 2 -9 -2 0 -5 -22 -20
-50 -34 -27 -13 -50 -27 -50 -31 0 -5 -5 -8 -11 -8 -6 0 -49 -23 -97 -51 -48
-29 -102 -60 -121 -71 -171 -97 -387 -224 -391 -230 -3 -4 -17 -2 -30 6 -31
16 -596 342 -705 406 -44 26 -97 57 -118 69 -21 12 -108 62 -192 111 -85 50
-159 90 -165 90 -5 0 -10 4 -10 8 0 5 -16 14 -35 22 -19 8 -35 17 -35 22 0 4
-7 8 -15 8 -8 0 -15 3 -15 8 0 4 -10 12 -23 18 -12 6 -41 21 -64 33 l-42 22 0
829 1 829 104 60 c57 34 108 61 113 61 5 0 11 3 13 8 2 4 17 15 33 24 31 17
155 88 265 153 36 21 79 45 95 53 17 9 32 18 35 21 3 3 14 11 25 17 73 40 188
106 235 135 8 5 26 15 40 21 14 7 27 15 30 18 3 3 14 10 25 16 11 6 63 36 115
66 52 30 106 61 120 69 14 8 27 16 30 19 9 9 64 39 103 56 20 9 37 20 37 25 0
11 23 2 90 -35z"/>
<path d="M4987 3610 c-26 -16 -49 -30 -52 -30 -2 0 -39 -21 -82 -46 -43 -26
-93 -55 -110 -65 -63 -36 -99 -57 -187 -108 -49 -28 -90 -51 -92 -51 -2 0 -43
-24 -91 -53 -48 -29 -95 -56 -103 -60 -16 -7 -32 -17 -96 -59 -23 -15 -44 -24
-48 -21 -3 4 -6 1 -6 -5 0 -7 -4 -12 -10 -12 -8 0 -128 -67 -180 -100 -8 -5
-48 -28 -89 -51 -98 -55 -112 -70 -102 -106 4 -15 5 -38 2 -51 -3 -12 -4 -63
-1 -113 3 -50 4 -92 2 -94 -6 -5 -4 -196 1 -201 3 -3 2 -16 -2 -30 -3 -13 -4
-56 -1 -95 3 -39 4 -72 1 -74 -5 -6 -4 -115 2 -121 3 -3 2 -16 -2 -30 -3 -13
-4 -56 -1 -95 3 -39 4 -72 1 -74 -5 -6 -4 -115 2 -121 3 -3 2 -16 -2 -30 -3
-13 -4 -56 -1 -95 3 -39 3 -72 0 -74 -3 -2 -4 -39 -2 -82 l3 -79 37 -20 c20
-10 65 -36 99 -56 35 -21 67 -38 73 -38 5 0 10 -4 10 -10 0 -5 4 -10 10 -10 5
0 55 -27 111 -60 55 -33 102 -60 104 -60 2 0 59 -33 126 -73 68 -40 131 -76
139 -80 8 -4 24 -13 35 -20 11 -7 54 -31 95 -55 41 -23 82 -47 90 -52 51 -33
345 -200 360 -205 11 -4 69 24 166 81 82 48 163 94 179 102 17 9 32 19 35 22
3 4 23 16 45 28 22 11 191 107 375 214 184 107 342 197 350 201 8 4 38 21 65
37 28 17 60 36 73 42 20 10 30 50 23 91 -2 10 -2 31 -2 120 0 37 0 74 0 82 0
8 0 44 0 80 0 36 0 72 0 80 0 8 0 44 0 80 0 36 0 72 0 80 0 8 0 44 0 80 0 36
0 72 0 80 0 8 0 44 0 80 0 36 0 73 1 83 0 9 0 41 0 70 0 30 -2 58 -5 62 -3 5
-2 11 2 13 5 3 6 58 3 122 -3 64 -3 118 -1 121 2 2 3 45 2 96 -2 88 -4 94 -29
115 -15 12 -31 22 -35 23 -5 0 -47 23 -95 52 -48 28 -112 65 -142 81 -30 17
-73 42 -95 56 -22 14 -42 26 -45 26 -3 0 -16 8 -30 16 -29 18 -266 156 -325
189 -22 12 -77 44 -121 71 -45 27 -84 49 -88 49 -3 0 -29 15 -58 33 -29 19
-60 37 -68 41 -8 4 -24 12 -35 19 -52 32 -133 77 -137 77 -2 0 -25 -13 -51
-30z m-526 -890 c7 -22 15 -40 19 -40 4 0 13 18 20 40 l14 41 49 -3 c35 -2 51
-7 53 -18 5 -37 16 -106 18 -118 6 -34 23 -6 37 60 l15 73 37 1 c48 1 45 5 62
-101 5 -27 9 -54 10 -60 1 -5 3 -18 3 -27 3 -27 32 -22 33 5 0 12 2 31 5 42 2
11 10 47 17 80 11 55 14 60 39 61 36 1 45 -5 55 -45 13 -50 31 -50 43 1 11 42
12 43 51 43 34 0 40 -3 45 -25 13 -60 32 -85 38 -48 1 7 5 19 10 26 4 7 6 16
2 19 -11 11 21 30 49 29 30 -2 30 -3 50 -104 27 -138 41 -136 60 8 11 81 19
95 57 98 43 4 44 0 63 -110 13 -81 23 -66 49 77 5 29 19 36 64 31 26 -2 48 -5
48 -5 1 -1 5 -17 8 -37 4 -21 12 -34 19 -31 7 2 12 8 13 13 0 5 4 22 9 38 7
26 11 28 43 22 19 -3 40 -10 46 -16 11 -11 19 -280 10 -305 -3 -7 -61 -11
-177 -12 -284 -3 -687 -2 -947 1 l-245 3 -1 139 c0 76 4 149 10 162 9 21 61
44 78 35 4 -2 13 -22 19 -43z m1254 -370 c14 -12 16 -26 11 -89 -9 -110 -11
-118 -25 -135 -12 -14 -44 -16 -227 -16 -117 0 -223 -4 -236 -9 -28 -10 -70
-52 -74 -72 -1 -8 -4 -24 -6 -37 -7 -38 -22 -43 -119 -44 -77 0 -95 3 -106 17
-7 10 -10 21 -8 25 15 24 -48 110 -85 118 -8 2 -110 3 -228 4 -199 0 -215 1
-230 19 -9 11 -18 34 -19 52 -1 17 -4 60 -6 95 -4 58 -2 64 19 75 36 19 1316
16 1339 -3z m-650 -475 c37 0 41 -3 51 -35 7 -19 9 -37 5 -40 -8 -7 -8 -70 1
-70 3 0 3 -13 -2 -30 -5 -17 -5 -30 0 -30 5 0 5 -13 0 -30 -5 -17 -5 -30 0
-30 5 0 5 -13 0 -30 -5 -17 -5 -30 0 -30 5 0 5 -13 0 -30 -5 -17 -5 -30 0 -30
5 0 5 -13 0 -30 -5 -17 -5 -30 0 -30 5 0 5 -13 0 -30 -5 -17 -5 -30 0 -30 5 0
5 -13 0 -30 -5 -17 -5 -30 0 -30 5 0 5 -13 0 -30 -5 -17 -5 -30 0 -30 5 0 5
-13 0 -30 -5 -17 -5 -30 0 -30 5 0 5 -13 0 -30 -5 -17 -5 -30 0 -30 5 0 5 -13
0 -30 -5 -17 -5 -30 0 -30 5 0 5 -13 0 -30 -5 -17 -5 -30 0 -30 5 0 5 -13 0
-30 -5 -19 -5 -30 1 -30 6 0 7 -6 1 -16 -5 -9 -7 -25 -5 -35 4 -13 -6 -23 -33
-37 -38 -20 -40 -20 -75 -1 -20 10 -39 24 -41 31 -3 7 -5 105 -4 218 1 113 -2
211 -7 218 -5 6 -6 12 -1 12 5 0 8 116 8 257 -1 250 -1 259 20 275 11 9 25 14
31 10 5 -3 28 -6 50 -7z"/>
<path d="M8400 3981 c-89 -56 -450 -261 -460 -261 -5 0 -10 -4 -10 -10 0 -5
-7 -10 -15 -10 -8 0 -15 -4 -15 -10 0 -5 -5 -10 -11 -10 -6 0 -48 -22 -95 -50
-47 -27 -89 -50 -94 -50 -6 0 -10 -4 -10 -9 0 -5 -9 -12 -19 -16 -11 -3 -82
-42 -158 -87 -76 -44 -158 -92 -182 -106 -75 -42 -145 -82 -161 -92 -25 -15
-128 -75 -250 -145 -36 -20 -70 -41 -75 -45 -7 -6 -11 -313 -10 -942 l0 -933
70 -42 c39 -24 81 -49 95 -56 30 -16 48 -27 255 -147 205 -119 169 -98 535
-309 173 -99 322 -185 330 -191 8 -6 26 -16 40 -22 14 -7 27 -15 30 -18 3 -3
25 -16 50 -29 25 -13 52 -30 61 -37 8 -8 18 -14 22 -14 3 0 33 -16 66 -35 44
-26 67 -34 86 -29 14 3 25 10 25 14 0 4 8 10 18 13 9 4 42 21 72 39 31 18 87
51 125 72 39 22 72 42 75 45 3 3 21 14 40 25 60 32 121 67 223 127 53 32 97
55 97 51 0 -4 4 -2 8 4 4 6 30 23 57 38 28 15 59 32 69 39 76 47 123 75 136
81 8 3 32 16 52 29 21 12 61 35 90 51 29 16 81 46 116 67 35 22 68 39 73 39 5
0 9 5 9 10 0 6 4 10 10 10 5 0 76 38 157 85 l148 85 1 940 1 940 -41 21 c-59
30 -82 43 -97 55 -8 6 -39 25 -69 41 -30 17 -143 81 -250 143 -107 62 -220
126 -250 143 -30 16 -62 36 -71 43 -8 8 -18 14 -22 14 -3 0 -81 44 -174 98
-92 54 -188 110 -213 124 -25 14 -117 67 -205 118 -229 132 -225 130 -233 130
-4 0 -27 -13 -52 -29z m271 -307 c101 -59 204 -118 229 -132 25 -13 52 -30 60
-38 8 -7 18 -13 23 -13 4 0 17 -7 30 -15 61 -38 149 -86 158 -86 5 0 9 -4 9
-9 0 -5 8 -11 18 -15 9 -3 31 -13 47 -23 17 -10 84 -49 150 -88 66 -38 129
-75 140 -82 11 -7 27 -15 35 -19 8 -4 42 -24 75 -44 33 -20 65 -39 70 -41 6
-2 47 -25 91 -52 l82 -47 0 -824 c-1 -453 -3 -828 -7 -833 -8 -11 -357 -215
-388 -226 -13 -5 -23 -12 -23 -17 0 -5 -6 -10 -13 -12 -19 -5 -360 -200 -375
-215 -7 -7 -17 -13 -22 -13 -5 0 -61 -32 -125 -70 -64 -39 -118 -70 -120 -70
-4 0 -121 -67 -175 -101 -8 -5 -33 -18 -55 -30 -22 -12 -43 -27 -47 -33 -4 -6
-8 -7 -8 -3 0 5 -12 -1 -26 -12 -15 -12 -34 -21 -43 -21 -9 0 -51 20 -93 45
-43 25 -81 45 -87 45 -5 0 -11 4 -13 8 -1 4 -41 29 -88 56 -104 59 -124 71
-223 130 -43 25 -81 46 -83 46 -2 0 -23 12 -47 27 -23 15 -71 43 -107 63 -74
42 -113 64 -188 109 -29 17 -57 31 -62 31 -6 0 -10 5 -10 10 0 6 -4 10 -10 10
-8 0 -257 141 -300 170 -8 6 -26 16 -40 22 -14 7 -27 15 -30 18 -3 3 -16 11
-30 18 l-25 13 0 829 c0 455 2 830 5 832 5 5 62 38 125 73 22 13 123 71 225
130 289 168 360 209 588 341 117 68 217 124 223 124 5 0 9 4 9 8 0 5 16 14 35
22 19 8 35 17 35 21 0 4 8 9 18 12 9 4 51 26 92 51 53 31 80 41 91 35 9 -4 99
-56 200 -115z"/>
<path d="M8353 3581 c-55 -32 -107 -61 -114 -65 -8 -4 -23 -12 -34 -19 -27
-16 -291 -170 -335 -195 -218 -123 -688 -398 -700 -409 -13 -12 -15 -109 -15
-758 0 -650 2 -746 15 -755 14 -10 333 -194 525 -303 50 -28 92 -55 93 -59 2
-5 7 -8 12 -8 5 0 48 -23 97 -51 48 -28 104 -60 123 -71 108 -61 269 -155 299
-175 18 -13 37 -20 42 -17 5 3 9 1 9 -4 0 -4 21 -19 47 -32 40 -20 49 -21 67
-10 12 8 34 21 51 29 16 9 32 19 35 22 3 4 28 19 55 33 28 15 64 35 80 45 27
17 62 37 126 73 13 7 26 15 29 18 3 3 19 12 35 21 81 44 100 54 105 60 3 3 30
19 60 35 85 46 104 58 112 69 4 6 8 6 8 1 0 -5 9 -1 20 9 11 10 20 14 20 9 0
-5 4 -4 8 2 7 11 198 124 210 124 3 0 13 6 21 14 9 7 41 26 71 42 30 16 59 33
65 37 5 4 44 27 85 51 l75 44 0 750 1 750 -68 41 c-38 23 -73 41 -78 41 -6 0
-10 5 -10 10 0 6 -4 10 -9 10 -13 0 -155 82 -159 92 -2 4 -8 8 -14 8 -5 0 -37
16 -71 36 -34 20 -76 45 -93 54 -133 76 -201 117 -212 127 -8 7 -18 11 -23 8
-5 -4 -9 -2 -9 3 0 5 -8 12 -17 16 -10 3 -31 14 -48 23 -113 68 -157 93 -166
93 -5 0 -9 4 -9 8 0 5 -16 14 -35 22 -19 8 -35 17 -35 20 0 3 -16 12 -35 20
-19 8 -35 17 -35 22 0 4 -4 8 -10 8 -5 0 -43 20 -83 45 -41 25 -76 45 -78 45
-3 0 -50 -26 -106 -59z m360 -824 c15 -4 27 -13 27 -19 0 -6 25 -51 55 -100
30 -48 55 -97 55 -108 0 -11 -39 -58 -89 -109 l-90 -90 -165 1 -166 1 -25 56
c-50 110 -60 126 -82 129 -20 3 -57 -26 -59 -46 0 -4 -15 -38 -32 -76 -18 -38
-32 -70 -32 -72 0 -3 -78 -175 -131 -289 -13 -27 -23 -53 -23 -57 -1 -3 -4
-10 -8 -14 -5 -4 -8 -14 -8 -23 -1 -22 -37 -64 -50 -56 -13 8 -13 30 0 53 5 9
30 82 56 162 26 80 49 150 53 155 3 6 6 15 7 20 1 6 16 52 34 103 34 101 36
134 5 138 -24 4 -45 31 -38 50 4 11 -7 14 -48 14 -58 0 -72 6 -82 32 -8 23 20
51 44 45 11 -3 19 -1 19 3 0 4 8 6 19 3 25 -6 51 22 51 56 0 18 7 31 20 37 24
10 641 11 683 1z m-70 -541 c19 -9 18 -6 21 -98 2 -71 14 -95 49 -100 23 -3
42 -33 52 -83 7 -34 9 -43 18 -65 5 -13 19 -66 21 -80 1 -3 7 -23 13 -45 46
-148 111 -390 107 -397 -3 -4 0 -8 6 -8 7 0 10 -7 6 -15 -3 -8 -2 -15 3 -15 4
0 8 -6 9 -12 1 -16 10 -53 12 -53 1 0 4 -13 6 -30 3 -16 9 -31 14 -33 12 -5 1
-37 -18 -48 -9 -6 -37 -22 -62 -36 -25 -14 -90 -51 -145 -83 -55 -32 -109 -63
-120 -69 -10 -6 -25 -17 -33 -23 -7 -7 -18 -13 -23 -13 -5 0 -32 -15 -61 -33
-50 -31 -98 -39 -98 -16 0 5 -7 9 -15 9 -8 0 -15 3 -15 8 0 4 -15 14 -32 21
-18 8 -61 32 -96 53 -34 21 -65 38 -68 38 -3 0 -12 7 -21 15 -13 14 -8 24 50
93 94 113 97 120 92 248 -3 60 -7 147 -10 194 -3 47 -8 128 -10 180 -3 52 -7
132 -10 177 -6 103 8 124 87 132 12 2 22 45 22 102 1 87 14 96 134 94 53 -1
105 -5 115 -9z"/>
</g>
</svg>
