<svg width="28" height="28" viewBox="0 0 28 28" fill="none" xmlns="http://www.w3.org/2000/svg">
<g clip-path="url(#clip0_11_698)">
<path d="M24.6 0.400024H4.20005C2.32495 0.400024 0.800049 1.92492 0.800049 3.80002V24.2C0.800049 26.0751 2.32495 27.6 4.20005 27.6H24.6C26.4751 27.6 28 26.0751 28 24.2V3.80002C28 1.92492 26.4751 0.400024 24.6 0.400024Z" fill="white"/>
<g clip-path="url(#clip1_11_698)">
<path d="M17.8193 4.93335H10.9807C8.36666 4.93335 6.23999 7.17817 6.23999 9.93743V17.1559C6.23999 19.9152 8.36666 22.16 10.9807 22.16H17.8193C20.4333 22.16 22.56 19.9152 22.56 17.156V9.93743C22.56 7.17817 20.4333 4.93335 17.8193 4.93335ZM21.285 17.1559C21.285 19.1731 19.7303 20.8142 17.8193 20.8142H10.9807C9.06969 20.8142 7.51499 19.1731 7.51499 17.156V9.93743C7.51499 7.92026 9.06969 6.27918 10.9807 6.27918H17.8193C19.7303 6.27918 21.285 7.92026 21.285 9.93743V17.1559Z" fill="#1A6E78"/>
<path d="M14.4 8.90356C11.9745 8.90356 10.0012 10.9864 10.0012 13.5467C10.0012 16.1069 11.9745 18.1898 14.4 18.1898C16.8255 18.1898 18.7987 16.1069 18.7987 13.5467C18.7987 10.9864 16.8255 8.90356 14.4 8.90356ZM14.4 16.844C12.6775 16.844 11.2762 15.3648 11.2762 13.5467C11.2762 11.7286 12.6775 10.2494 14.4 10.2494C16.1224 10.2494 17.5237 11.7286 17.5237 13.5467C17.5237 15.3648 16.1224 16.844 14.4 16.844Z" fill="#1A6E78"/>
<path d="M18.8625 9.50916C19.2146 9.50916 19.5 9.20789 19.5 8.83625C19.5 8.46461 19.2146 8.16333 18.8625 8.16333C18.5104 8.16333 18.225 8.46461 18.225 8.83625C18.225 9.20789 18.5104 9.50916 18.8625 9.50916Z" fill="#1A6E78"/>
</g>
</g>
<defs>
<clipPath id="clip0_11_698">
<rect width="27.2" height="27.2" fill="white" transform="translate(0.800049 0.400024)"/>
</clipPath>
<clipPath id="clip1_11_698">
<rect width="16.32" height="17.2267" fill="white" transform="translate(6.23999 4.93335)"/>
</clipPath>
</defs>
</svg>
