<svg width="53" height="22" viewBox="0 0 53 22" fill="none" xmlns="http://www.w3.org/2000/svg">
<g clip-path="url(#clip0_93_299)">
<path fill-rule="evenodd" clip-rule="evenodd" d="M0.615699 18.1903C0.625345 18.1037 0.644552 18.0171 0.663845 17.94L0.721551 17.6224C0.731197 17.5743 0.731197 17.5166 0.750446 17.4588C0.76005 17.4107 0.769653 17.3722 0.779299 17.3337C0.788945 17.2471 0.808152 17.1605 0.817798 17.0643C0.827444 16.9776 0.856298 16.891 0.865944 16.8237C0.865944 16.7659 0.952588 16.2751 0.971795 16.2366C0.971795 16.1596 1.08733 15.4378 1.10654 15.3993C1.11619 15.2646 1.16425 15.1105 1.17389 14.9758C1.18354 14.8218 1.24129 14.6197 1.26054 14.4657C1.27018 14.331 1.30868 14.1577 1.32793 14.023C1.33758 13.946 1.34714 13.8883 1.36643 13.8016C1.37608 13.7439 1.39533 13.6861 1.39533 13.6091C1.42418 13.5129 1.43383 13.33 1.46268 13.253C1.47233 13.1087 1.51083 12.9643 1.53008 12.8199C1.53968 12.7622 1.54928 12.7237 1.55893 12.6563C1.56857 12.6082 1.55893 12.5697 1.58782 12.5504C1.58782 12.4253 1.63593 12.3002 1.63593 12.1943C1.66482 12.0307 1.70332 11.8575 1.72257 11.6938C1.74182 11.5783 1.76107 11.4725 1.78032 11.357C1.78992 11.3185 1.79953 11.2319 1.80917 11.1934C1.81882 11.1357 1.82842 11.1164 1.82842 11.0587C1.83803 10.972 1.85727 10.8854 1.87652 10.7988C1.88617 10.7314 1.91502 10.6255 1.91502 10.5678C1.93427 10.4716 1.95357 10.3657 1.96317 10.2791C1.97282 10.0866 2.04981 9.89411 2.04981 9.69201C2.06902 9.64386 2.09796 9.48026 2.09796 9.43212C2.11717 9.33587 2.13646 9.23002 2.1461 9.14337L2.23275 8.61403C2.24235 8.57553 2.24235 8.56589 2.24235 8.52739C2.24235 8.50814 2.24235 8.50814 2.252 8.48889L2.26164 8.46964C2.26164 8.32529 2.30975 8.15204 2.329 8.01729C2.329 7.95959 2.37714 7.68045 2.39639 7.65155C2.39639 7.52645 2.43489 7.47835 2.43489 7.36281C2.44454 7.31466 2.48304 7.14146 2.48304 7.08371C2.48304 7.01636 2.50224 6.98751 2.51189 6.92011L2.58889 6.51587C2.58889 6.39077 2.60814 6.33298 2.62743 6.21748C2.63703 6.17898 2.66593 5.99609 2.67553 5.94803C2.68518 5.86139 2.70443 5.80364 2.71403 5.70743C2.72368 5.64004 2.80067 5.10105 2.82957 5.0722C2.82957 4.98555 2.83917 4.96635 2.85842 4.88935C2.86807 4.82195 2.90657 4.48511 2.93546 4.45621C2.93546 4.35036 2.95467 4.27336 2.97396 4.16747C2.99317 4.07122 2.99317 4.00387 3.02207 3.92687L3.12796 3.32053C3.12796 3.24349 3.2146 2.72379 3.23381 2.69494C3.23381 2.60829 3.31081 2.14635 3.33966 2.0886C3.33966 2.0212 3.38781 1.72286 3.40706 1.68432C3.40706 1.59771 3.43591 1.44376 3.4552 1.35712C3.4552 1.29937 3.5803 0.587176 3.58991 0.548634C3.58991 0.41393 3.63805 0.250287 3.6573 0.11554C3.6573 0.0385418 3.6669 0.0577914 3.67651 0H24.6097L24.5135 0.635193C24.4943 0.731441 24.5231 0.673692 24.475 0.712191L24.4846 0.760337C24.4557 0.904687 24.3787 1.53992 24.3306 1.60727C24.3402 1.69392 24.2536 2.27136 24.2151 2.32911C24.2247 2.42532 24.1381 2.9066 24.1092 3.02205L24.0515 3.3493L23.8686 4.35027C23.8783 4.41763 23.7916 4.94697 23.7628 4.99511C23.7724 5.13946 23.7146 5.36085 23.6857 5.51485L23.5991 6.0249C23.5895 6.04415 23.5895 6.04415 23.5895 6.06344L23.5798 6.0923C23.5895 6.16929 23.5702 6.35219 23.5221 6.40989C23.5317 6.51574 23.4836 6.71789 23.4644 6.82374C23.4452 6.93923 23.3682 7.49743 23.3297 7.54553C23.3393 7.63218 23.2719 8.09412 23.2238 8.15191C23.2334 8.20002 23.1853 8.59461 23.1371 8.65236C23.1564 8.77746 23.0409 9.2491 23.0216 9.4223C22.9928 9.52819 22.9831 9.64369 22.9639 9.74954L22.8965 10.0864C22.9062 10.1345 22.8484 10.6254 22.7907 10.7023C22.8099 10.7794 22.781 10.9622 22.7329 11.02C22.7426 11.1066 22.7137 11.2028 22.7041 11.2991L22.5982 11.8284C22.6078 11.8958 22.579 12.1172 22.5405 12.1653C22.5501 12.2615 22.502 12.5983 22.4538 12.6657C22.4635 12.7619 22.4346 12.8678 22.4153 12.9641C22.4057 13.0315 22.3865 13.2047 22.348 13.2528C22.3576 13.3106 22.348 13.3587 22.3383 13.4165C22.3383 13.4453 22.3287 13.4742 22.3191 13.5031C22.3095 13.5608 22.3191 13.532 22.2902 13.5705C22.2999 13.6379 22.2902 13.6763 22.2806 13.7341C22.2806 13.7533 22.271 13.7918 22.271 13.8111C22.2613 13.8688 22.271 13.84 22.2421 13.8785L22.1844 14.3308C22.1459 14.4463 22.2229 14.2346 22.1747 14.3597C22.1747 14.3597 22.1651 14.3789 22.1651 14.3693C22.1651 14.3693 22.1651 14.379 22.1555 14.379C22.1651 14.4367 22.1555 14.4848 22.1458 14.5426L22.1073 14.6869C22.1266 14.7639 22.0592 15.1681 22.0207 15.2259C22.0303 15.3221 21.963 15.7745 21.9149 15.8323C21.9245 15.9285 21.8764 16.2846 21.8282 16.3423C21.8379 16.4194 21.8186 16.5926 21.7801 16.6503C21.7897 16.737 21.7609 16.8428 21.7416 16.9391L21.6742 17.3626C21.6646 17.4299 21.6261 17.6994 21.5972 17.7571C21.6164 17.8534 21.578 17.9785 21.5587 18.0844C21.5395 18.1806 21.5395 18.3154 21.4913 18.3828C21.5009 18.4694 21.4721 18.5657 21.4624 18.6523C21.4528 18.7293 21.4432 18.8448 21.4047 18.8928C21.4239 19.0084 21.3566 19.249 21.3373 19.3741C21.3181 19.4992 21.3181 19.7302 21.2507 19.8168C21.2603 19.913 21.2122 20.2691 21.164 20.3269C21.1737 20.4135 21.0967 20.8947 21.0582 20.9428C21.0678 21.0583 21.0005 21.3759 20.9812 21.5106C20.9619 21.655 20.9908 21.6742 20.8464 21.6839H2.75236V21.6742C2.17487 21.6742 1.59743 21.6742 1.02959 21.6839H-0.000244141C0.0093593 21.6068 0.0286089 21.5202 0.0479011 21.4336L0.124899 20.9332C0.134503 20.8947 0.153752 20.7214 0.173045 20.7022C0.173045 20.6445 0.240397 20.2017 0.259689 20.1728C0.259689 20.1055 0.278896 20.0092 0.288542 19.9515C0.500287 18.7195 0.336687 19.7879 0.586932 18.1613L0.615785 18.1902L0.615699 18.1903ZM5.00443 19.865H8.25752C9.2681 14.8891 10.6155 6.95853 11.5106 1.75171L8.28646 1.75167C8.32496 2.89695 5.15851 19.0083 5.01412 19.8746L5.00447 19.865H5.00443ZM13.1467 14.6003C13.1178 14.6677 13.1082 14.7929 13.0986 14.8794C13.0889 14.9661 13.0504 15.072 13.0504 15.1682C13.0504 15.2259 13.0216 15.3029 13.0119 15.3607C13.0023 15.4281 12.9831 15.5147 12.9735 15.5917C12.9542 15.6206 12.9061 15.9189 12.9061 15.9863C12.8772 16.0248 12.8002 16.5157 12.8002 16.6023L12.6944 17.1412C12.6751 17.2856 12.627 17.4011 12.6462 17.5839C12.6751 17.8727 12.9253 18.0555 13.2333 18.0074C13.4643 17.9689 13.445 17.9497 13.599 17.863C13.6567 17.7668 13.8878 17.5743 13.8685 17.4203C13.907 17.3626 13.9743 16.9199 13.984 16.8525C14.0129 16.7274 14.0898 16.3424 14.0802 16.2461L14.0898 16.2173C14.0898 16.2076 14.1669 15.9863 14.1476 15.8515L14.1764 15.7553C14.1861 15.7264 14.1861 15.6879 14.1957 15.6494C14.2053 15.582 14.2342 15.5051 14.2149 15.4377C14.2245 15.4185 14.2245 15.4377 14.2341 15.3992L14.2534 15.3125C14.263 15.2451 14.263 15.2451 14.263 15.1874C14.3111 15.1297 14.3304 14.8698 14.3496 14.7736C14.3689 14.6485 14.4362 14.379 14.4266 14.2731L14.494 13.9844C14.5132 13.8785 14.5421 13.7726 14.5325 13.6764C14.5614 13.6379 14.5614 13.5802 14.5517 13.5224C14.6383 13.3877 14.5036 12.868 14.4555 12.7236C14.4074 12.5889 14.1571 12.1846 14.0802 12.1461C14.0609 12.098 13.8492 11.8092 13.8011 11.7804C13.7818 11.7226 13.8011 11.7707 13.7626 11.7226L13.4931 11.3858L13.4257 11.2799C13.3391 11.1741 12.9349 10.6447 12.8963 10.6351C12.8771 10.5677 12.7135 10.3752 12.6558 10.3078C12.6076 10.2501 12.444 10.0191 12.4055 9.99987C12.3863 9.96137 12.1552 9.63413 12.1167 9.61488C12.0686 9.49938 11.982 9.39349 11.9146 9.27803C11.8858 9.22989 11.8472 9.16254 11.8184 9.09514C11.7992 9.04704 11.7703 8.95079 11.7414 8.91229C11.7029 8.6909 11.6837 8.58505 11.6932 8.34445L11.7799 7.72851L11.9243 6.92003C11.9531 6.78532 12.0301 6.43883 12.0109 6.32333C12.059 6.25594 12.0975 5.94799 12.0975 5.8517C12.1361 5.80355 12.2131 5.31271 12.2034 5.24536C12.2708 5.13946 12.2996 4.68712 12.3478 4.52352C12.367 4.38882 12.444 4.09043 12.4344 3.97497C12.4536 3.95576 12.4441 3.97497 12.4536 3.93647L12.4921 3.77287C12.5114 3.70548 12.5403 3.62848 12.5307 3.56113C12.5595 3.52263 12.5499 3.54188 12.5692 3.48409C12.5788 3.45523 12.5884 3.43598 12.598 3.40709C12.6172 3.34938 12.6365 3.31088 12.6365 3.24349C12.6847 3.19534 12.7424 3.03174 12.7713 2.95474L12.9253 2.666C12.9734 2.63711 13.0215 2.56011 13.06 2.512C13.1082 2.44461 13.1467 2.41576 13.2044 2.36761C13.2525 2.32911 13.522 2.14626 13.5316 2.12701C13.6182 2.09816 13.7145 2.03081 13.8107 1.99231C13.9069 1.95377 13.9936 1.91527 14.0994 1.88641C14.3208 1.81906 14.5133 1.79021 14.7539 1.77092C15.4373 1.75171 16.1399 1.77092 16.8328 1.77092C17.4969 1.77092 18.1224 1.82862 18.4786 2.21361C18.5556 2.29061 18.7192 2.512 18.7673 2.64675C18.8058 2.76225 18.854 2.84885 18.8828 2.97399C18.9117 3.1087 18.9213 3.23384 18.9213 3.39744C18.9213 3.45519 18.9117 3.56108 18.9021 3.63804C18.8925 3.71504 18.8733 3.81129 18.8733 3.89793C18.8636 3.98457 18.8348 4.09043 18.8251 4.17703C18.8155 4.27328 18.7962 4.40802 18.7674 4.48502C18.7674 4.55237 18.7385 4.65827 18.7289 4.73527C18.7097 4.83147 18.6904 4.92776 18.6807 5.01436C18.6711 5.04322 18.6326 5.26461 18.6326 5.30311C18.623 5.3705 18.6037 5.44746 18.5845 5.53406C18.5653 5.63031 18.546 5.71695 18.546 5.81316C18.5171 5.8998 18.5075 6.0153 18.4882 6.12115C18.469 6.24625 18.4497 6.34254 18.4305 6.45799C18.4305 6.52539 18.392 6.68895 18.3824 6.74674C18.3727 6.80449 18.3727 6.82374 18.3632 6.89113C18.3535 6.93923 18.3343 6.99698 18.3343 7.06433C18.3247 7.13173 18.3054 7.21833 18.2861 7.29533C18.2669 7.38197 18.2476 7.47818 18.2476 7.55518C18.238 7.61293 18.2188 7.68992 18.1995 7.76692L15.6298 7.77657C15.6298 7.59372 15.7453 7.26648 15.7356 7.09319C15.7838 7.03548 15.8319 6.6697 15.8223 6.58314C15.8415 6.55424 15.8319 6.58314 15.8415 6.53499L15.9185 6.0249C15.9762 5.95751 16.0244 5.40896 16.0629 5.28381C16.0821 5.14907 16.1399 4.94697 16.1303 4.82182C16.1688 4.76412 16.1688 4.61972 16.1976 4.55237L16.2073 4.45613L16.2361 4.33102C16.3131 3.95568 16.1688 3.62844 15.7742 3.62844C15.4566 3.62844 15.1293 3.82093 15.0331 4.09043C15.0139 4.13857 15.0139 4.16742 14.9946 4.20592C14.9753 4.30217 14.9464 4.43692 14.9464 4.53317C14.9272 4.61981 14.9175 4.67752 14.8983 4.77376C14.8791 4.87001 14.8598 4.94701 14.8598 5.05286L14.8213 5.19721L14.7924 5.37046C14.7732 5.49556 14.7443 5.61106 14.7347 5.7266C14.7058 5.7458 14.7155 5.80359 14.7058 5.8517C14.6962 5.91905 14.6866 5.93834 14.6769 5.99605C14.6673 6.08269 14.6288 6.20779 14.6288 6.29444C14.6096 6.37144 14.5999 6.43879 14.5806 6.53504C14.5614 6.63124 14.5421 6.70828 14.5421 6.81413C14.5133 6.85263 14.4748 7.13173 14.4651 7.22798C14.4555 7.29533 14.4363 7.56482 14.4555 7.63222C14.4747 7.68992 14.4363 7.65143 14.4844 7.68036C14.4362 7.81507 14.6095 8.15196 14.6865 8.2867C14.7346 8.3637 14.6769 8.31556 14.7539 8.3541C14.7442 8.4022 14.7442 8.3637 14.7539 8.4022C14.7539 8.42145 14.7731 8.4407 14.7827 8.45995L15.2447 9.08554C15.2832 9.11439 15.2158 9.08554 15.2832 9.11439C15.2832 9.1721 15.5142 9.44164 15.5623 9.48013L15.9088 9.88437C15.9088 9.89402 15.8896 9.89402 15.9377 9.96137L16.3708 10.5004L16.6114 10.7988C16.6788 10.8854 16.6499 10.8661 16.7076 10.895C16.7173 10.9527 16.852 11.1163 16.8905 11.1837C16.9675 11.2992 17.0349 11.4628 17.0926 11.4917C17.0734 11.5494 17.083 11.5109 17.1118 11.5783C17.1311 11.6072 17.1311 11.6168 17.1503 11.665L17.2754 12.0211C17.314 12.1655 17.2851 12.1751 17.3332 12.2136C17.285 12.3291 17.314 12.5024 17.314 12.6274C17.3043 12.7045 17.2947 12.7237 17.2947 12.82C17.2755 12.8488 17.2081 13.3204 17.2081 13.3974C17.1792 13.4263 17.2081 13.3878 17.1889 13.4359C17.1889 13.4455 17.1792 13.5033 17.1792 13.5033C17.1696 13.5707 17.16 13.6091 17.16 13.6669C17.1408 13.7054 17.0734 14.1 17.0734 14.1577C17.0541 14.2348 17.0349 14.3503 17.0252 14.4465C17.0156 14.5524 16.9771 14.6486 16.9771 14.7737C16.9579 14.793 16.9579 14.8411 16.9482 14.8796C16.9386 14.9373 16.9386 14.9663 16.929 15.0143C16.9098 15.1106 16.9001 15.2165 16.8809 15.3031C16.8809 15.3993 16.8327 15.5341 16.8327 15.6496C16.8135 15.6785 16.7846 15.8709 16.7846 15.9287C16.7654 16.0634 16.7269 16.1981 16.7172 16.3425C16.698 16.3906 16.6498 16.6793 16.6498 16.7563C16.621 16.7755 16.621 16.8525 16.621 16.8911C16.6113 16.9584 16.6017 16.9873 16.5921 17.0547C16.5729 17.1702 16.5439 17.2953 16.5344 17.4108C16.5151 17.4589 16.4959 17.5648 16.4862 17.6225C16.467 17.6899 16.4381 17.7958 16.4285 17.8728L16.2649 18.3348C16.1782 18.5465 16.0724 18.6716 16.0339 18.7679C16.0147 18.7775 15.8992 18.9411 15.8703 18.9796C15.8318 19.0277 15.8222 19.0373 15.7837 19.0855L15.6778 19.201C15.6008 19.3068 15.2928 19.5282 15.1485 19.5859C15.0714 19.6148 15.0041 19.6341 14.9271 19.6822C14.8404 19.6918 14.5036 19.8073 14.1956 19.8169L13.3391 19.8361C13.1754 19.8361 13.0696 19.8554 12.9252 19.8554L11.8088 19.8555C11.7029 19.8555 11.6837 19.8362 11.5874 19.8362C11.5393 19.8362 11.4045 19.8074 11.3468 19.7977C11.3083 19.7881 11.2794 19.7881 11.2313 19.7785C11.1832 19.7689 11.1639 19.7496 11.1062 19.7496C10.7694 19.6726 10.6731 19.5571 10.4999 19.432C10.471 19.4128 10.4902 19.4224 10.471 19.4128C10.4421 19.3647 10.471 19.4032 10.4325 19.3551C10.4228 19.3359 10.4133 19.3359 10.4036 19.3166L10.0764 18.7006C10.0667 18.614 10.0379 18.537 10.0282 18.4504C10.0186 18.3542 10.0379 18.2675 10.0186 18.1809C10.0475 18.1232 10.086 17.6804 10.0956 17.5746C10.1148 17.4206 10.1918 17.103 10.1823 16.9779C10.2208 16.9201 10.2496 16.718 10.24 16.6506L10.2496 16.6217C10.2496 16.6217 10.3363 16.3041 10.317 16.179C10.3555 16.1309 10.4517 15.5631 10.4421 15.4764L10.4806 15.3321C10.4902 15.2647 10.5095 15.2262 10.4902 15.1685L10.5094 15.1107C10.5094 15.1011 10.5191 15.0626 10.5191 15.053C10.5287 15.0145 10.5287 14.976 10.5383 14.9375C10.5479 14.8605 10.5768 14.7739 10.5672 14.6969C10.6153 14.6295 10.6634 14.3119 10.6538 14.2157C10.6923 14.158 10.7693 13.619 10.7885 13.5035C10.8463 13.4554 12.0012 13.4843 12.0686 13.4843H13.3776L13.2814 14.0521L13.2428 14.2735C13.2236 14.3793 13.1851 14.4852 13.1851 14.6007H13.1466L13.1467 14.6003Z" fill="white"/>
<path fill-rule="evenodd" clip-rule="evenodd" d="M32.2999 8.36346L32.3769 9.57618C32.3865 9.64358 32.3865 9.69168 32.3865 9.78793C32.3865 9.88418 32.4057 9.89378 32.4057 9.99003C32.4057 10.2595 32.4539 10.5386 32.4539 10.8177L32.4827 11.2124C32.5019 11.3567 32.5019 11.4915 32.5019 11.6358C32.5019 11.7513 32.5308 11.9149 32.5404 12.0304L32.5693 12.6272C32.5693 12.7234 32.5885 12.7427 32.5885 12.8293L32.6367 13.657C32.6367 13.7532 32.6559 13.7628 32.6559 13.8591C32.6559 14.0997 32.6848 14.2152 32.6848 14.475L32.7233 14.8889L31.0101 14.8888L31.3277 13.2527C31.3759 12.9736 31.4433 12.7137 31.4913 12.4346C31.5106 12.2998 31.5395 12.1747 31.5684 12.0303C31.5972 11.886 31.6261 11.7609 31.6454 11.6165L31.963 9.98034C32.0207 9.71089 32.0592 9.43179 32.1266 9.16225L32.2421 8.55587C32.2517 8.51737 32.2517 8.50777 32.2613 8.45002L32.2902 8.34417L32.2998 8.36338L32.2999 8.36346ZM41.5779 11.2316H39.9128C39.8454 11.2316 39.8743 11.1738 39.8743 11.0968L40.0668 8.04587C40.0668 7.94962 40.086 7.94001 40.086 7.85337L40.1437 6.83319C40.1533 6.76579 40.1533 6.70808 40.1533 6.63104C40.1533 6.45784 40.2015 6.0247 40.2015 5.8226C40.2015 5.7264 40.2207 5.70711 40.2207 5.62051L40.24 5.20666C40.2496 5.09116 40.2688 4.91792 40.2688 4.79282H42.0494C42.5402 4.79282 42.3958 5.15856 42.3958 5.54355L42.1745 8.98909C42.1745 9.06609 42.1841 9.13344 42.1745 9.21049C42.1263 9.64358 42.1263 10.2018 42.0782 10.6253C42.0494 10.8852 42.1552 11.222 41.5778 11.222V11.2316L41.5779 11.2316ZM29.9322 20.2016C29.9707 20.0187 30.0092 19.8166 30.0477 19.6337C30.0862 19.4316 30.1248 19.2487 30.1633 19.0466C30.2017 18.8541 30.2402 18.6616 30.2787 18.4596C30.3172 18.267 30.3557 18.0649 30.4038 17.8821L32.9447 17.8821C32.9447 18.0457 32.9928 18.3055 32.9928 18.4691C33.0025 18.7579 33.0506 19.0562 33.0602 19.345C33.0698 19.5375 33.1083 19.7396 33.1083 19.9417C33.1083 20.0283 33.0987 20.2016 33.1757 20.2016H39.2487C39.3257 20.2016 39.2969 20.0668 39.3161 19.8743C39.3354 19.6337 39.3353 19.3738 39.3642 19.1332C39.3739 19.0755 39.3642 19.0081 39.3642 18.9504L39.4316 18.0168C39.4508 17.8436 39.4413 17.6222 39.4701 17.449C39.499 17.2661 39.4893 17.0736 39.5086 16.8811C39.5183 16.8234 39.5086 16.7656 39.5183 16.6982L39.6145 15.2064C39.6145 15.1294 39.6145 15.0813 39.6241 15.0043C39.653 14.7926 39.6723 14.4558 39.6723 14.244H40.115C40.1823 14.244 40.1727 14.3307 40.192 14.3884L40.6828 16.448C40.7405 16.6886 40.8079 16.9677 40.8657 17.2083C41.0582 17.959 41.2411 18.7001 41.4047 19.4604L41.5394 20.0283C41.5586 20.0957 41.5491 20.1919 41.6164 20.1919H45.4373C45.4373 20.1052 45.3699 19.9128 45.3411 19.8165L44.9465 18.344C44.7925 17.7184 44.6 17.1024 44.446 16.4769C44.292 15.8609 44.0995 15.2353 43.9552 14.6194C43.9263 14.4943 43.8782 14.3691 43.8493 14.244C44.3209 14.244 44.677 14.1189 44.9368 13.9072C45.37 13.5607 45.6394 13.0313 45.6298 12.4442L45.8416 9.0757C45.8608 8.96984 45.8512 8.8351 45.8704 8.73885L45.9089 8.05547C45.9089 7.97847 45.9186 7.95926 45.9281 7.90147C45.9378 7.83412 45.9281 7.78597 45.9378 7.71862C45.9667 7.55502 45.957 7.38178 45.9667 7.21813L46.0148 6.54444C46.0244 6.3808 46.0244 6.1883 46.0437 6.0247L46.1014 5.00452H47.2467C47.2467 5.32212 47.1985 5.63011 47.1985 5.94771L47.1311 6.89089C47.1119 7.05449 47.1215 7.20849 47.1119 7.37209L47.0445 8.31527C47.0445 8.48852 47.0349 8.65212 47.0157 8.79647L46.7847 12.5885C46.7655 12.7233 46.7655 12.9254 46.7558 13.0601C46.7558 13.1468 46.7366 13.1756 46.7366 13.2815L46.4286 18.2863C46.419 18.4306 46.3901 18.6038 46.3901 18.7482L46.3324 19.7011C46.3132 19.8454 46.3035 20.0187 46.3035 20.1823H50.0764C50.1534 20.1823 50.1245 20.0764 50.1245 19.9898C50.1245 19.8358 50.163 19.6818 50.163 19.5086L50.24 18.3151C50.2592 18.19 50.2689 17.9879 50.2689 17.8435C50.2689 17.7569 50.2881 17.7184 50.2881 17.6029C50.2881 17.4874 50.3073 17.4586 50.3073 17.3623C50.3073 17.2372 50.3169 17.0159 50.3362 16.8907C50.3651 16.7271 50.3458 16.5635 50.3651 16.3998C50.3747 16.2555 50.3939 16.0919 50.3939 15.9379L50.4325 15.4567C50.4325 15.3508 50.4421 15.3123 50.4517 15.2353L50.4902 14.4942C50.5094 14.2151 50.5479 13.8301 50.5575 13.551L50.6057 12.5885C50.6153 12.4442 50.6442 12.2806 50.6442 12.1266C50.6442 11.963 50.673 11.7994 50.6827 11.6454C50.6923 11.3085 50.7212 11.0198 50.7308 10.6829L51.0677 5.45682C51.0773 5.37018 51.0773 5.30282 51.0773 5.20658C51.0773 5.11993 51.0965 5.08147 51.0965 4.96598H53.5989C53.5315 4.68688 53.4834 4.39814 53.416 4.09979L53.1562 2.80046C53.1273 2.64647 53.0984 2.51172 53.0695 2.35777C53.0406 2.22302 53.0118 2.06902 52.9829 1.93428C52.954 1.78028 52.9058 1.63589 52.9058 1.48193H45.9762C45.9666 1.54933 45.9473 1.59747 45.9281 1.65518C45.8703 1.81878 45.7933 2.00167 45.7548 2.16527H45.7163C45.6971 2.09788 45.6297 2.04973 45.5816 2.00163C45.4757 1.89578 45.3506 1.82843 45.2255 1.76103C44.9079 1.56854 44.4074 1.48193 43.9839 1.48193H36.7271C36.7271 1.74182 36.6886 1.94392 36.6886 2.18452C36.6886 2.26156 36.6789 2.29042 36.6789 2.33852C36.6693 2.40591 36.6789 2.46362 36.6693 2.52141C36.6597 2.61762 36.6501 2.77165 36.6404 2.8679C36.6308 2.92561 36.6404 2.9834 36.6404 3.04111L36.5827 3.92659C36.5538 4.13833 36.5442 4.71582 36.525 4.98527L36.4961 5.50501C36.4961 5.68786 36.4576 5.84185 36.4576 6.01506L36.3517 7.59348C36.3421 7.88222 36.294 8.18057 36.3036 8.46931C36.3036 8.75806 36.2651 9.0564 36.2555 9.34515L36.1207 11.424C36.1207 11.8379 36.0533 12.2613 36.0533 12.6752H36.0341C36.0341 12.3287 35.909 11.6742 35.8801 11.2893L35.8513 11.0583C35.8416 10.9621 35.8416 10.9139 35.832 10.8273L35.5048 8.06511C35.4181 7.45873 35.3797 6.82354 35.2834 6.2268L35.2257 5.76486L34.7348 1.60708C34.7156 1.43383 34.6963 1.49158 34.3306 1.49158L30.7118 1.49154L30.0573 4.19599C29.5472 6.22676 29.0756 8.26713 28.5655 10.3075C28.5078 10.5289 28.45 10.7599 28.4019 10.9813L27.3336 15.3797L27.2469 15.7261L26.2556 19.7972C26.2459 19.8261 26.1689 20.1341 26.1689 20.1341C26.1786 20.1822 26.1689 20.163 26.2267 20.163H29.9321V20.2015L29.9322 20.2016Z" fill="white"/>
</g>
<defs>
<clipPath id="clip0_93_299">
<rect width="52.3379" height="21.6839" fill="white"/>
</clipPath>
</defs>
</svg>
