<svg width="127" height="92" viewBox="0 0 127 92" fill="none" xmlns="http://www.w3.org/2000/svg">
<path d="M62.919 24.2635L52.7892 18.4207L42.6536 24.2635V35.9722L52.7892 41.8265L62.919 35.9722V24.2635ZM61.734 35.2872L52.7892 40.468L43.8385 35.2872V24.9255L52.7892 19.7447L61.734 24.9255V35.2872Z" fill="white"/>
<path d="M44.6611 25.4206V34.8094L52.7892 39.5067L60.9115 34.8094V25.4206L52.7892 20.7233L44.6611 25.4206ZM53.5772 35.6038C53.5772 36.3694 53.6405 37.0602 53.6923 37.6877L52.7834 38.2115L51.8515 37.6704C51.9033 37.0487 51.9493 36.3637 51.9666 35.6038C52.0011 34.0496 51.8918 32.7659 51.84 31.6837C52.4616 31.7472 53.088 31.7472 53.7096 31.6837C53.6578 32.7716 53.5485 34.0553 53.5772 35.6038ZM54.4746 26.6467C54.716 27.0336 55.0859 27.323 55.5193 27.464C55.9527 27.6051 56.422 27.5888 56.8446 27.4181C56.8595 27.3312 56.9046 27.2523 56.972 27.1955C57.0393 27.1386 57.1246 27.1073 57.2127 27.1073H57.9088C58.0064 27.1073 58.1 27.1461 58.1691 27.2152C58.2381 27.2843 58.2769 27.378 58.2769 27.4757V29.1451C58.2769 29.2443 58.2375 29.3395 58.1674 29.4096C58.0973 29.4798 58.0022 29.5192 57.903 29.5192H57.2127C57.1249 29.518 57.0402 29.4864 56.9731 29.4297C56.9059 29.373 56.8605 29.2948 56.8446 29.2084C56.3089 29.0267 55.7241 29.0559 55.2091 29.29C54.6942 29.5242 54.2876 29.9457 54.0719 30.469C54.0236 30.5817 53.9434 30.6777 53.8412 30.7452C53.7389 30.8127 53.6192 30.8488 53.4967 30.849H52.0989C51.9657 30.8699 51.8293 30.8434 51.7136 30.7739C51.598 30.7045 51.5104 30.5966 51.4661 30.469L51.0117 29.358C50.9759 29.2452 50.9132 29.1428 50.829 29.0595C50.7449 28.9763 50.6418 28.9147 50.5286 28.8802C50.4154 28.8457 50.2956 28.8391 50.1793 28.8612C50.0631 28.8833 49.9539 28.9333 49.8612 29.0069C48.6429 29.8178 47.5711 30.83 46.6917 32.0003C46.6748 32.0266 46.6494 32.0465 46.6197 32.0565C46.59 32.0665 46.5578 32.0661 46.5284 32.0554C46.4989 32.0447 46.474 32.0243 46.4577 31.9975C46.4414 31.9708 46.4347 31.9393 46.4386 31.9082V31.3325C46.4228 31.133 46.4647 30.9332 46.5594 30.7569C47.3015 29.1566 48.705 26.2726 51.6157 26.1862H53.8764C54.1812 26.2208 54.3078 26.4107 54.4746 26.6467Z" fill="white"/>
<path d="M32.0175 42.7764V54.4851L42.1531 60.3394L52.2829 54.4851V42.7764L42.1531 36.9221L32.0175 42.7764ZM51.0979 43.4614V53.8231L42.1531 59.0039L33.2024 53.8231V43.4614L42.1531 38.2806L51.0979 43.4614Z" fill="white"/>
<path d="M55.3719 43.9392V53.328L63.5 58.0253L71.628 53.328V43.9392L63.5 39.2419L55.3719 43.9392ZM64.0004 56.4825L63.5403 56.7473L63.011 56.448V50.49C63.0118 50.4575 63.0189 50.4255 63.0321 50.3957C63.0452 50.366 63.064 50.3391 63.0875 50.3167C63.111 50.2942 63.1387 50.2766 63.169 50.2649C63.1993 50.2531 63.2317 50.2475 63.2641 50.2483H63.7588C63.8234 50.2498 63.8849 50.2765 63.93 50.3228C63.9752 50.369 64.0005 50.4311 64.0004 50.4958V56.4825ZM67.7395 48.4638C67.7395 48.671 67.6072 48.8149 67.3886 48.8091H65.0876C64.9792 48.7968 64.8694 48.8078 64.7655 48.8415C64.6617 48.8751 64.5662 48.9306 64.4856 49.0042C64.4049 49.0778 64.341 49.1678 64.298 49.2682C64.255 49.3686 64.2339 49.4771 64.2363 49.5863C64.2389 49.6179 64.2346 49.6498 64.2237 49.6796C64.2127 49.7094 64.1955 49.7365 64.173 49.759C64.1506 49.7814 64.1235 49.7987 64.0937 49.8097C64.0639 49.8206 64.0321 49.8249 64.0004 49.8223H63.0225C62.9906 49.824 62.9587 49.8189 62.9289 49.8073C62.8991 49.7957 62.8722 49.7778 62.8498 49.7549C62.8275 49.732 62.8103 49.7046 62.7994 49.6746C62.7885 49.6445 62.7842 49.6124 62.7867 49.5805C62.789 49.4713 62.768 49.3629 62.725 49.2625C62.682 49.1621 62.618 49.0721 62.5374 48.9985C62.4568 48.9248 62.3613 48.8694 62.2575 48.8357C62.1536 48.8021 62.0438 48.791 61.9354 48.8034H59.6344C59.5879 48.805 59.5416 48.797 59.4983 48.7799C59.455 48.7629 59.4156 48.737 59.3827 48.7041C59.3498 48.6712 59.324 48.6318 59.307 48.5885C59.2899 48.5452 59.2819 48.4988 59.2835 48.4522L59.2145 47.5773C59.2068 47.5299 59.2103 47.4814 59.2248 47.4356C59.2393 47.3899 59.2644 47.3482 59.298 47.314C59.3316 47.2798 59.3729 47.254 59.4183 47.2388C59.4638 47.2235 59.5122 47.2191 59.5596 47.2261H63.5172H67.4691C67.7049 47.2261 67.8373 47.3585 67.82 47.5773L67.7395 48.4638ZM63.5805 44.7739H63.6553C63.6819 44.7705 63.7088 44.7777 63.7303 44.7938C63.7517 44.8099 63.7661 44.8337 63.7704 44.8602L63.8106 45.0041C63.8139 45.0309 63.8139 45.0579 63.8106 45.0847L63.8739 45.3035C63.8781 45.3177 63.8869 45.3302 63.8988 45.3391C63.9107 45.348 63.9252 45.3528 63.94 45.3528C63.9549 45.3528 63.9694 45.348 63.9813 45.3391C63.9932 45.3302 64.0019 45.3177 64.0062 45.3035C64.0465 45.1538 64.0925 45.0041 64.1327 44.8544C64.137 44.829 64.1505 44.8061 64.1707 44.7901C64.1909 44.7742 64.2164 44.7663 64.242 44.7681H64.5066C64.5195 44.7665 64.5326 44.7675 64.545 44.7709C64.5575 44.7744 64.5692 44.7804 64.5793 44.7884C64.5895 44.7964 64.598 44.8064 64.6043 44.8177C64.6106 44.8291 64.6145 44.8416 64.6159 44.8544L64.8345 46.0518C64.8405 46.0668 64.8508 46.0796 64.8642 46.0886C64.8775 46.0976 64.8932 46.1025 64.9093 46.1025C64.9254 46.1025 64.9411 46.0976 64.9545 46.0886C64.9678 46.0796 64.9781 46.0668 64.9841 46.0518C65.0474 45.6488 65.1164 45.2459 65.1854 44.8487C65.1862 44.8366 65.1893 44.8247 65.1946 44.8139C65.1999 44.803 65.2073 44.7932 65.2164 44.7852C65.2255 44.7772 65.2361 44.771 65.2475 44.7671C65.259 44.7632 65.2711 44.7616 65.2832 44.7623H65.6284C65.6534 44.7607 65.6781 44.7687 65.6974 44.7848C65.7166 44.8009 65.729 44.8238 65.7319 44.8487L65.8872 45.6949C65.8915 45.7091 65.9002 45.7217 65.9121 45.7305C65.924 45.7394 65.9385 45.7442 65.9534 45.7442C65.9682 45.7442 65.9827 45.7394 65.9946 45.7305C66.0065 45.7217 66.0153 45.7091 66.0195 45.6949C66.0655 45.4128 66.1115 45.1192 66.1633 44.8487C66.1633 44.7911 66.2036 44.7623 66.2669 44.7566H66.7271C66.7537 44.7533 66.7805 44.7604 66.802 44.7765C66.8235 44.7926 66.8378 44.8164 66.8421 44.8429L66.9514 45.2056C66.9556 45.2198 66.9644 45.2324 66.9763 45.2412C66.9882 45.2501 67.0027 45.2549 67.0175 45.2549C67.0324 45.2549 67.0469 45.2501 67.0588 45.2412C67.0707 45.2324 67.0795 45.2198 67.0837 45.2056L67.1815 44.8372C67.188 44.8118 67.203 44.7895 67.2239 44.7738C67.2448 44.7581 67.2704 44.75 67.2965 44.7508H67.4173C67.517 44.7508 67.6127 44.7901 67.6838 44.8601C67.7548 44.9301 67.7955 45.0252 67.797 45.125V46.8519C67.7359 46.8431 67.674 46.8431 67.6129 46.8519L63.8106 46.8807C63.7476 46.8723 63.6838 46.8723 63.6208 46.8807H63.3965C63.3335 46.8723 63.2696 46.8723 63.2066 46.8807L59.4043 46.8347C59.3433 46.8259 59.2813 46.8259 59.2203 46.8347V45.1077C59.2218 45.008 59.2624 44.9128 59.3335 44.8428C59.4045 44.7728 59.5002 44.7335 59.5999 44.7336H59.7265C59.7524 44.7343 59.7773 44.7439 59.7971 44.7606C59.817 44.7773 59.8306 44.8002 59.8358 44.8257L59.9335 45.1883C59.9378 45.2026 59.9465 45.2151 59.9584 45.224C59.9704 45.2329 59.9848 45.2377 59.9997 45.2377C60.0146 45.2377 60.029 45.2329 60.041 45.224C60.0529 45.2151 60.0616 45.2026 60.0658 45.1883L60.1751 44.8257C60.1807 44.8002 60.1956 44.7778 60.2169 44.7629C60.2382 44.7479 60.2644 44.7416 60.2902 44.7451H60.7331C60.7587 44.7449 60.7834 44.7542 60.8026 44.7712C60.8217 44.7882 60.8338 44.8117 60.8367 44.8372L60.9747 45.6834C60.979 45.6976 60.9877 45.7101 60.9996 45.719C61.0115 45.7279 61.026 45.7327 61.0409 45.7327C61.0557 45.7327 61.0702 45.7279 61.0821 45.719C61.094 45.7101 61.1028 45.6976 61.107 45.6834L61.2623 44.8429C61.2638 44.83 61.2677 44.8176 61.274 44.8062C61.2803 44.7949 61.2888 44.7849 61.2989 44.7769C61.3091 44.7689 61.3208 44.7629 61.3332 44.7594C61.3457 44.756 61.3588 44.755 61.3716 44.7566H61.7168C61.7413 44.7578 61.7647 44.7677 61.7826 44.7846C61.8005 44.8015 61.8119 44.8242 61.8146 44.8487C61.8778 45.2459 61.9469 45.6488 62.0101 46.0518C62.0161 46.0668 62.0264 46.0796 62.0398 46.0886C62.0531 46.0976 62.0688 46.1025 62.0849 46.1025C62.101 46.1025 62.1167 46.0976 62.1301 46.0886C62.1434 46.0796 62.1537 46.0668 62.1597 46.0518L62.384 44.8544C62.3847 44.8418 62.388 44.8294 62.3937 44.8181C62.3994 44.8068 62.4073 44.7968 62.417 44.7887C62.4267 44.7806 62.438 44.7746 62.4502 44.771C62.4623 44.7675 62.475 44.7665 62.4876 44.7681H62.7579C62.7836 44.7698 62.808 44.7797 62.8277 44.7962C62.8473 44.8128 62.8612 44.8352 62.8672 44.8602L62.988 45.3035C62.9923 45.3177 63.001 45.3302 63.0129 45.3391C63.0249 45.348 63.0393 45.3528 63.0542 45.3528C63.0691 45.3528 63.0835 45.348 63.0954 45.3391C63.1074 45.3302 63.1161 45.3177 63.1203 45.3035L63.1836 45.0905C63.181 45.0617 63.181 45.0328 63.1836 45.0041L63.2296 44.866C63.2339 44.8395 63.2483 44.8156 63.2697 44.7995C63.2912 44.7834 63.3181 44.7763 63.3447 44.7796H63.5288L63.5805 44.7739Z" fill="white"/>
<path d="M53.3644 42.7764V54.4851L63.5 60.3394L73.6299 54.4851V42.7764L63.5 36.9221L53.3644 42.7764ZM72.4794 53.8L63.5288 58.9809L54.5781 53.8V43.4384L63.5288 38.2576L72.4794 43.4384V53.8Z" fill="white"/>
<path d="M65.335 11.7547V10.3444L64.6044 11.7547H65.335Z" fill="white"/>
<path d="M55.3719 7.01141V16.406L63.5 21.0975L71.628 16.406V7.01141L63.5 2.30261L55.3719 7.01141ZM63.5403 4.43826L69.7643 8.05909V15.341L63.4712 18.9964L57.1782 15.341V8.05909L61.5787 5.51473L61.1818 4.82971L63.1318 5.08875L62.384 6.90779L61.9871 6.22853L58.0008 8.53112V14.8632L63.4712 18.0235L68.9417 14.8632V8.53112L63.5403 5.37081V4.43826ZM61.8548 10.235C61.5902 10.235 61.4119 10.3962 61.1588 10.7474L60.6296 10.2753C60.7466 10.0369 60.9286 9.83631 61.1545 9.69678C61.3804 9.55726 61.6411 9.48443 61.9066 9.48669C62.0594 9.48018 62.2119 9.5055 62.3544 9.56105C62.497 9.6166 62.6264 9.70118 62.7346 9.80941C62.8427 9.91765 62.9272 10.0472 62.9828 10.1898C63.0383 10.3324 63.0636 10.4851 63.0571 10.638C63.0571 11.2712 62.7637 11.5821 62.1597 12.1059L61.5845 12.5779H63.0743V13.2975H60.549V12.6643L61.6995 11.6281C62.1252 11.2367 62.2747 11.0525 62.2747 10.7186C62.2803 10.659 62.2736 10.5989 62.2553 10.5419C62.2369 10.4849 62.2073 10.4322 62.168 10.387C62.1288 10.3418 62.0808 10.3051 62.027 10.279C61.9731 10.2528 61.9146 10.2379 61.8548 10.235ZM66.4567 11.7547V12.3649H66.0368V13.332H65.3292V12.3649H63.9429V11.6684L65.0934 9.54426H66.0598V11.7547H66.4567Z" fill="white"/>
<path d="M73.6299 17.563V5.85434L63.5 0L53.3644 5.85434V17.563L63.5 23.4173L73.6299 17.563ZM54.5494 16.878V6.51633L63.5 1.3355L72.4506 6.51633V16.878L63.5 22.0588L54.5494 16.878Z" fill="white"/>
<path d="M50.2754 53.328V43.9392L42.1531 39.2419L34.025 43.9392V53.328L42.1531 58.0253L50.2754 53.328ZM47.7788 49.2063C47.8152 48.6603 47.7901 48.1119 47.7041 47.5715C47.7128 47.47 47.7128 47.3679 47.7041 47.2664V46.2705C47.9822 46.5658 48.1681 46.936 48.239 47.3355C48.3582 47.9593 48.3969 48.5957 48.3541 49.2294C48.3548 49.5071 48.2638 49.7773 48.0953 49.998C47.9268 50.2186 47.6902 50.3775 47.4222 50.4497L42.8779 51.7277C42.723 51.7623 42.5872 51.855 42.4984 51.9867C42.4096 52.1183 42.3746 52.279 42.4004 52.4357V54.0763H41.8252V52.4357C41.795 52.1463 41.8712 51.8557 42.0395 51.6184C42.2079 51.3811 42.4568 51.2133 42.7398 51.1463L47.2841 49.8683C47.4294 49.8305 47.5575 49.7444 47.6474 49.6241C47.7373 49.5038 47.7837 49.3565 47.7788 49.2063ZM36.4007 47.2376V45.8158C36.4007 45.544 36.5086 45.2834 36.7006 45.0912C36.8927 44.8991 37.1531 44.7911 37.4247 44.7911H46.0129C46.1473 44.7919 46.2803 44.8191 46.4043 44.8713C46.5282 44.9235 46.6407 44.9996 46.7352 45.0953C46.8298 45.191 46.9046 45.3044 46.9553 45.429C47.0061 45.5536 47.0318 45.687 47.031 45.8215V47.2434C47.0341 47.5162 46.9296 47.7793 46.74 47.9755C46.5505 48.1716 46.2912 48.285 46.0186 48.2911H37.4304C37.2935 48.2903 37.158 48.2624 37.0319 48.2089C36.9058 48.1554 36.7916 48.0774 36.6958 47.9795C36.6001 47.8815 36.5247 47.7655 36.474 47.6381C36.4234 47.5108 36.3985 47.3747 36.4007 47.2376ZM41.3823 55.1413C41.3823 55.0436 41.421 54.9498 41.4901 54.8808C41.5591 54.8117 41.6528 54.7729 41.7504 54.7729H42.4867C42.5843 54.7729 42.678 54.8117 42.747 54.8808C42.8161 54.9498 42.8549 55.0436 42.8549 55.1413V56.3444L42.1531 56.7473L41.3823 56.3041V55.1413Z" fill="white"/>
<path d="M66.008 25.4206V34.8094L74.136 39.5067L82.2583 34.8094V25.4206L74.136 20.7233L66.008 25.4206ZM75.6604 27.7232L75.4878 26.5143C75.4811 26.4724 75.4875 26.4295 75.506 26.3913C75.5244 26.3531 75.5542 26.3215 75.5912 26.3007C75.6283 26.28 75.6707 26.2712 75.713 26.2754C75.7552 26.2796 75.795 26.2967 75.8272 26.3244C76.208 26.6197 76.5206 26.9937 76.744 27.4208C76.9673 27.848 77.0961 28.3183 77.1215 28.7997C77.1059 29.3078 76.9171 29.7953 76.5865 30.1812C75.6604 31.3037 75.2923 31.4189 75.1772 34.0611L75.0622 36.9393C75.0622 37.2329 75.0622 37.515 75.0622 37.728L74.159 38.246L73.1524 37.6704C73.1524 37.4401 73.1524 37.1868 73.1812 36.9048L73.2962 34.0841C73.3767 31.511 72.721 31.3498 71.8121 30.0546C71.5319 29.6155 71.3915 29.1016 71.4094 28.5809C71.4362 27.9736 71.6078 27.3814 71.9099 26.854C71.9283 26.8122 71.9604 26.7779 72.0008 26.7568C72.0412 26.7356 72.0876 26.7289 72.1324 26.7376C72.1772 26.7463 72.2177 26.7699 72.2473 26.8047C72.2769 26.8394 72.2938 26.8832 72.2953 26.9288L72.4679 28.1665C72.4978 28.3717 72.6078 28.5567 72.7739 28.6809C72.94 28.805 73.1486 28.8581 73.3537 28.8284L75.0219 28.5867C75.2247 28.5528 75.4057 28.4399 75.5254 28.2726C75.6451 28.1054 75.6937 27.8974 75.6604 27.6944V27.7232Z" fill="white"/>
<path d="M76.7246 43.9392V53.328L84.8469 58.0253L92.9749 53.328V43.9392L84.8469 39.2419L76.7246 43.9392ZM84.8469 56.7473L82.9601 55.6594L83.7425 54.721C83.9186 54.5127 84.009 54.2452 83.9956 53.9727L83.754 49.7474C83.7508 49.6994 83.7575 49.6513 83.7738 49.606C83.79 49.5607 83.8153 49.5192 83.8482 49.4841C83.8811 49.449 83.9209 49.4211 83.965 49.402C84.0092 49.383 84.0568 49.3732 84.1049 49.3733C84.1994 49.3733 84.2902 49.3357 84.357 49.2687C84.4239 49.2018 84.4615 49.111 84.4615 49.0164V48.4407C84.4607 48.3941 84.4692 48.3479 84.4865 48.3046C84.5038 48.2613 84.5296 48.2219 84.5622 48.1887C84.5949 48.1555 84.6338 48.1291 84.6768 48.1111C84.7197 48.0931 84.7658 48.0838 84.8124 48.0838H85.8075C85.8986 48.0838 85.9862 48.1192 86.0517 48.1826C86.1172 48.246 86.1554 48.3323 86.1584 48.4235V49.1142C86.1599 49.1835 86.1885 49.2493 86.2379 49.2978C86.2874 49.3462 86.3539 49.3733 86.423 49.3733C86.4815 49.3735 86.5384 49.3927 86.5851 49.428C86.6317 49.4633 86.6657 49.5127 86.6819 49.569L88.166 54.8189L84.8469 56.7473ZM86.5726 44.8544L87.2974 46.0518C87.3258 46.0994 87.3378 46.1551 87.3316 46.2102C87.3254 46.2653 87.3012 46.3168 87.2629 46.3569L86.285 47.347C86.2609 47.3713 86.2322 47.3904 86.2006 47.4032C86.169 47.4161 86.135 47.4224 86.1009 47.4218H84.2717C84.2212 47.4231 84.1716 47.4089 84.1294 47.3811C84.0872 47.3533 84.0546 47.3133 84.0358 47.2664L83.6792 46.4029C83.66 46.3587 83.6288 46.3207 83.5891 46.2932C83.5495 46.2658 83.503 46.2499 83.4548 46.2475H83.4088C83.3603 46.2448 83.312 46.2565 83.2701 46.281C83.2282 46.3056 83.1944 46.342 83.173 46.3857L81.5221 50.0813C81.4128 50.3058 81.1539 50.277 81.2459 50.0813L82.4424 46.5699C82.4565 46.5321 82.4611 46.4915 82.4559 46.4515C82.4507 46.4116 82.4358 46.3735 82.4126 46.3406C82.3894 46.3077 82.3585 46.281 82.3225 46.2628C82.2866 46.2445 82.2468 46.2353 82.2066 46.236H82.0455V45.8791H81.4703C81.4032 45.8791 81.3388 45.8524 81.2913 45.8049C81.2438 45.7574 81.2172 45.693 81.2172 45.6258C81.2172 45.5586 81.2438 45.4942 81.2913 45.4467C81.3388 45.3992 81.4032 45.3725 81.4703 45.3725H81.8039C81.871 45.3725 81.9354 45.3458 81.9829 45.2983C82.0304 45.2508 82.057 45.1864 82.057 45.1192V44.9811C82.057 44.9139 82.0837 44.8495 82.1311 44.802C82.1786 44.7545 82.243 44.7278 82.3101 44.7278H86.3368C86.3868 44.7205 86.4379 44.7287 86.4832 44.7513C86.5285 44.774 86.5657 44.81 86.5899 44.8544H86.5726Z" fill="white"/>
<path d="M84.8469 36.9221L74.717 42.7764V54.4851L84.8469 60.3394L94.9825 54.4851V42.7764L84.8469 36.9221ZM93.7975 53.8L84.8469 58.9809L75.902 53.8V43.4384L84.8469 38.2576L93.7975 43.4384V53.8Z" fill="white"/>
<path d="M84.2717 24.2635L74.1361 18.4207L64.0005 24.2635V35.9722L74.1361 41.8265L84.2717 35.9722V24.2635ZM83.0867 35.2872L74.1361 40.468L65.1855 35.2872V24.9255L74.1361 19.7447L83.0867 24.9255V35.2872Z" fill="white"/>
<path d="M31.6378 82.4615V83.2444H17.0269V82.4615L24.1598 68.4503H25.0227L31.6378 82.4615ZM27.3351 80.2913L24.5165 74.2585L21.4332 80.2971L27.3351 80.2913Z" fill="white"/>
<path d="M11.5852 83.2444V74.1895L7.3457 78.0521L3.10624 74.1895V83.2444H0.149536V68.4503H1.15044L7.3342 74.0628L13.4949 68.4503H14.5246V83.2444H11.5852Z" fill="white"/>
<path d="M37.3902 76.9756C36.5964 76.7982 35.8394 76.4846 35.1525 76.0488C34.5859 75.6917 34.1161 75.2001 33.785 74.6176C33.4538 74.0352 33.2715 73.3799 33.2542 72.71C33.2134 72.16 33.2881 71.6075 33.4733 71.088C33.6586 70.5685 33.9503 70.0936 34.3299 69.6936C35.2562 68.7908 36.4887 68.2707 37.7813 68.2373C39.3794 68.2343 40.9347 68.7538 42.2106 69.7167L42.6938 70.0333L41.1119 72.5316L40.5885 72.192C39.6393 71.5818 39.0238 71.1788 37.7123 71.1788C37.2243 71.2234 36.7641 71.4254 36.4008 71.7545C36.3004 71.8679 36.2257 72.0018 36.182 72.1469C36.1383 72.292 36.1266 72.4448 36.1477 72.5949C36.1477 73.3548 36.7229 73.7807 38.0459 74.1146L38.4716 74.2413C39.7049 74.618 40.8268 75.2921 41.7389 76.2042C42.4681 76.9862 42.8785 78.0129 42.8894 79.0825C42.8491 80.2767 42.3465 81.4085 41.4878 82.2388C40.6292 83.0691 39.4816 83.5329 38.2875 83.5322C37.4098 83.5445 36.5351 83.4242 35.6932 83.1753C34.3608 82.7422 33.1622 81.973 32.2131 80.9418L34.3644 78.9155C34.8636 79.466 35.477 79.9006 36.1616 80.189C36.8462 80.4773 37.5855 80.6125 38.3278 80.5849C38.7374 80.5875 39.1326 80.4344 39.4337 80.1566C39.7349 79.8788 39.9194 79.4969 39.95 79.0882C39.95 78.2823 39.0468 77.5455 37.5052 77.0159H37.4419L37.3902 76.9756Z" fill="white"/>
<path d="M55.6653 68.4503V71.3803H51.5754V83.2214H48.6245V71.3803H44.5115V68.4272L55.6653 68.4503Z" fill="white"/>
<path d="M67.5209 71.3803H60.6181V74.1031H66.3129V77.0562H60.6181V80.2683H67.4519V83.2214H57.6729V68.4272H67.5209V71.3803Z" fill="white"/>
<path d="M77.2423 83.2444L74.4812 77.3152H73.0028V83.2214H70.0519V68.4272H75.6201C76.6326 68.4301 77.6136 68.7792 78.4007 69.4164C79.1878 70.0537 79.7336 70.941 79.9478 71.9312C80.1619 72.9215 80.0315 73.9552 79.5782 74.8611C79.1248 75.767 78.3758 76.4907 77.4551 76.9123L80.3888 83.2444H77.2423ZM73.0028 71.3803V74.3564H75.6201C75.8142 74.3579 76.0067 74.3209 76.1863 74.2475C76.366 74.174 76.5293 74.0656 76.6668 73.9285C76.8043 73.7915 76.9133 73.6285 76.9874 73.4489C77.0615 73.2694 77.0993 73.077 77.0985 72.8828C77.1 72.687 77.063 72.4928 76.9895 72.3113C76.916 72.1299 76.8075 71.9646 76.6703 71.8251C76.533 71.6856 76.3696 71.5745 76.1894 71.4982C76.0092 71.4219 75.8158 71.3818 75.6201 71.3803H73.0028Z" fill="white"/>
<path d="M100.091 77.7757C99.955 79.2016 99.2931 80.5256 98.2341 81.4892C97.1752 82.4528 95.7954 82.9867 94.3641 82.9867C92.9329 82.9867 91.5531 82.4528 90.4942 81.4892C89.4352 80.5256 88.7733 79.2016 88.6377 77.7757V68.4503H91.5886V77.7757C91.5917 78.5121 91.8865 79.2173 92.4085 79.7364C92.9305 80.2555 93.6369 80.5461 94.3728 80.5446C94.7335 80.5477 95.0911 80.4779 95.4242 80.3394C95.7572 80.201 96.059 79.9966 96.3113 79.7387C96.8298 79.2255 97.1253 78.5285 97.1339 77.7988V68.4503H100.085V77.7757H100.091Z" fill="white"/>
<path d="M106.562 76.9756C105.768 76.7972 105.012 76.4837 104.324 76.0488C103.758 75.6917 103.288 75.2001 102.957 74.6176C102.626 74.0352 102.443 73.3799 102.426 72.71C102.385 72.16 102.46 71.6075 102.645 71.088C102.83 70.5685 103.122 70.0936 103.502 69.6936C104.428 68.7908 105.66 68.2707 106.953 68.2373C108.551 68.2343 110.106 68.7538 111.382 69.7167L111.866 70.0333L110.318 72.5316L109.789 72.192C108.84 71.5818 108.23 71.1788 106.913 71.1788C106.427 71.2234 105.968 71.4255 105.607 71.7545C105.505 71.867 105.43 72.0008 105.386 72.1462C105.342 72.2915 105.331 72.4448 105.354 72.5949C105.354 73.3548 105.929 73.7807 107.252 74.1146L107.672 74.2413C108.906 74.6165 110.028 75.2908 110.939 76.2042C111.669 76.9862 112.079 78.0129 112.09 79.0825C112.05 80.2767 111.547 81.4085 110.688 82.2388C109.83 83.0691 108.682 83.5329 107.488 83.5322C106.61 83.5438 105.736 83.4235 104.894 83.1753C103.546 82.7469 102.333 81.9752 101.373 80.936L103.525 78.9098C104.032 79.4724 104.658 79.9151 105.357 80.2058C106.057 80.4965 106.812 80.628 107.569 80.5907C107.979 80.5934 108.375 80.4405 108.677 80.1628C108.979 79.8851 109.164 79.5032 109.196 79.094C109.196 78.2881 108.288 77.5512 106.746 77.0216H106.683L106.562 76.9756Z" fill="white"/>
<path d="M124.935 72.0365C122.059 70.1772 117.739 71.9099 117.739 75.8761C117.732 76.7343 117.966 77.5772 118.412 78.3097C118.859 79.0423 119.501 79.6353 120.267 80.022C121.033 80.4086 121.891 80.5735 122.745 80.498C123.599 80.4226 124.416 80.1097 125.102 79.5948L127 81.765C125.889 82.687 124.54 83.2756 123.108 83.4629C121.677 83.6502 120.222 83.4284 118.912 82.8233C117.601 82.2182 116.488 81.2544 115.702 80.0432C114.915 78.832 114.487 77.4229 114.467 75.9786C114.446 74.5343 114.835 73.1137 115.587 71.8809C116.34 70.6482 117.425 69.6536 118.718 69.012C120.012 68.3704 121.46 68.108 122.896 68.2551C124.332 68.4022 125.697 68.9528 126.833 69.8433L124.935 72.0365Z" fill="white"/>
<path d="M3.49167 90.2443C3.49167 90.7076 3.30773 91.152 2.98032 91.4796C2.65292 91.8073 2.20886 91.9913 1.74583 91.9913C1.28281 91.9913 0.83875 91.8073 0.511343 91.4796C0.183935 91.152 0 90.7076 0 90.2443L0 87.3948H0.897364V90.2385C0.904699 90.4558 0.995333 90.6619 1.15047 90.8141C1.30374 90.9662 1.50992 91.0528 1.7257 91.0559C1.94173 91.054 2.14835 90.9672 2.30093 90.8141C2.45346 90.6607 2.5419 90.4549 2.54828 90.2385V87.389H3.48591V90.2327L3.49167 90.2443Z" fill="white"/>
<path d="M8.56525 91.9136L6.02847 89.2772V91.9136H5.1311V87.4006H5.41297L7.90373 89.9219V87.4006H8.80109V91.9136H8.56525Z" fill="white"/>
<path d="M12.3043 88.3043V91.0099H12.7817V91.9136H10.9294V91.0099H11.4126V88.3043H10.9294V87.4006H12.7874V88.3043H12.3043Z" fill="white"/>
<path d="M16.5897 91.9136L14.5534 87.4006H15.5313L16.6818 89.9622L17.8322 87.4006H18.8274L16.7968 91.9136H16.5897Z" fill="white"/>
<path d="M23.9182 88.3043H21.8186V89.1333H23.5443V90.0313H21.8186V91.0099H23.9009V91.9136H20.9155V87.4006H23.9182V88.3043Z" fill="white"/>
<path d="M28.1864 91.9137L27.3408 90.1061H26.8922V91.9021H25.9775V87.3948H27.7032C28.0623 87.3964 28.4061 87.5402 28.6595 87.7948C28.9128 88.0494 29.055 88.394 29.055 88.7534C29.0553 89.0126 28.9805 89.2665 28.8396 89.4841C28.6987 89.7017 28.4978 89.8738 28.2612 89.9795L29.1528 91.9137H28.1864ZM26.8922 88.2928V89.2254H27.6917C27.8107 89.2254 27.9249 89.1781 28.009 89.0939C28.0931 89.0097 28.1404 88.8955 28.1404 88.7764C28.1412 88.7167 28.1302 88.6574 28.108 88.6019C28.0859 88.5465 28.0531 88.4959 28.0114 88.4531C27.9697 88.4104 27.9201 88.3762 27.8652 88.3527C27.8104 88.3291 27.7514 88.3166 27.6917 88.3159L26.8922 88.2928Z" fill="white"/>
<path d="M32.5237 90.0025C32.2804 89.9474 32.0487 89.85 31.8392 89.7147C31.6668 89.6068 31.524 89.4577 31.4236 89.2808C31.3232 89.104 31.2683 88.9049 31.2639 88.7015C31.2496 88.5335 31.2715 88.3643 31.3281 88.2054C31.3846 88.0465 31.4746 87.9016 31.5918 87.7805C31.8726 87.5061 32.2465 87.3478 32.6387 87.3372C33.1244 87.3356 33.5973 87.4933 33.9848 87.7862L34.1343 87.8841L33.6684 88.6497L33.5073 88.5461C33.2606 88.3483 32.9548 88.2389 32.6387 88.2352C32.4905 88.2479 32.3498 88.3062 32.2361 88.4022C32.2066 88.438 32.1848 88.4794 32.1719 88.524C32.159 88.5685 32.1554 88.6152 32.1613 88.6612C32.1613 88.8915 32.3281 89.0239 32.7365 89.1275L32.8631 89.162C33.2362 89.271 33.5776 89.4685 33.8582 89.7377C34.0819 89.977 34.209 90.2908 34.2149 90.6184C34.2053 90.9515 34.0767 91.2701 33.8525 91.5164C33.7227 91.6627 33.5632 91.7795 33.3846 91.8589C33.206 91.9383 33.0125 91.9786 32.8171 91.977C32.5503 91.9808 32.2846 91.9439 32.029 91.8676C31.6173 91.7391 31.2464 91.5049 30.9533 91.1883L31.6378 90.5896C31.7896 90.7581 31.9764 90.8912 32.1851 90.9797C32.3938 91.0682 32.6193 91.1099 32.8458 91.102C32.9713 91.1023 33.0921 91.0549 33.184 90.9694C33.2758 90.8839 33.3318 90.7667 33.3405 90.6415C33.3405 90.3997 33.0644 90.1752 32.5985 90.014H32.5467L32.5237 90.0025Z" fill="white"/>
<path d="M39.0584 91.0732H37.1946L36.7689 91.9136H35.7623L38.0632 87.4006H38.3278L40.4562 91.9136H39.4495L39.0584 91.0732ZM38.6384 90.1752L38.1667 89.1678L37.6605 90.1752H38.6384Z" fill="white"/>
<path d="M43.085 91.0099H44.7647V91.9021H42.1876V87.4006H43.085V91.0099Z" fill="white"/>
<path d="M51.5352 90.0025C51.2919 89.9474 51.0602 89.85 50.8506 89.7147C50.6783 89.6068 50.5355 89.4577 50.4351 89.2808C50.3347 89.104 50.2798 88.9049 50.2754 88.7015C50.2626 88.5336 50.2852 88.3648 50.3416 88.2062C50.3981 88.0475 50.4873 87.9025 50.6033 87.7805C50.8847 87.5071 51.2582 87.349 51.6502 87.3372C52.1377 87.3356 52.6123 87.4932 53.002 87.7862L53.1458 87.8841L52.6799 88.6497L52.5188 88.5461C52.2728 88.3471 51.9666 88.2375 51.6502 88.2352C51.5035 88.2471 51.3644 88.3056 51.2533 88.4022C51.2272 88.4372 51.2085 88.4773 51.1986 88.5199C51.1887 88.5625 51.1878 88.6067 51.1958 88.6497C51.1958 88.88 51.3626 89.0124 51.771 89.116L51.8976 89.1505C52.2707 89.2595 52.6121 89.457 52.8927 89.7262C53.1188 89.9639 53.2463 90.2787 53.2494 90.6069C53.2398 90.94 53.1112 91.2586 52.887 91.5049C52.7572 91.6512 52.5977 91.768 52.4191 91.8474C52.2405 91.9268 52.047 91.9671 51.8515 91.9654C51.5848 91.9693 51.3191 91.9324 51.0635 91.8561C50.6518 91.7276 50.2809 91.4934 49.9878 91.1768L50.6205 90.5896C50.7723 90.7581 50.9591 90.8912 51.1678 90.9797C51.3765 91.0682 51.602 91.1099 51.8285 91.102C51.954 91.1023 52.0748 91.0549 52.1667 90.9694C52.2585 90.8839 52.3145 90.7667 52.3232 90.6415C52.3232 90.3997 52.0471 90.1752 51.5812 90.014H51.5294L51.5352 90.0025Z" fill="white"/>
<path d="M58.0353 88.3043H55.93V89.1333H57.6557V90.0313H55.93V91.0099H58.0181V91.9136H55.0326V87.4006H58.0353V88.3043Z" fill="white"/>
<path d="M62.2863 91.9136L61.4407 90.1061H60.9748V91.9021H60.0774V87.3948H61.8031C62.1134 87.3909 62.4156 87.494 62.659 87.6868C62.9023 87.8796 63.072 88.1502 63.1395 88.4534C63.2069 88.7566 63.1681 89.0737 63.0295 89.3516C62.8909 89.6295 62.661 89.8512 62.3783 89.9795L63.2699 91.9136H62.2863ZM60.9748 88.2928V89.2254H61.7743C61.8333 89.2254 61.8916 89.2138 61.946 89.1912C62.0005 89.1686 62.0499 89.1356 62.0916 89.0939C62.1333 89.0522 62.1663 89.0027 62.1889 88.9482C62.2114 88.8937 62.223 88.8353 62.223 88.7764C62.2238 88.7166 62.2128 88.6574 62.1906 88.6019C62.1685 88.5464 62.1357 88.4959 62.094 88.4531C62.0523 88.4103 62.0026 88.3762 61.9478 88.3527C61.893 88.3291 61.834 88.3166 61.7743 88.3159L60.9748 88.2928Z" fill="white"/>
<path d="M66.5027 91.9136L64.4664 87.4006H65.4615L66.612 89.9622L67.7625 87.4006H68.7576L66.727 91.9136H66.5027Z" fill="white"/>
<path d="M71.8236 88.3043V91.0099H72.3011V91.9136H70.4431V91.0099H70.9263V88.3043H70.4431V87.4006H72.3011V88.3043H71.8236Z" fill="white"/>
<path d="M77.4264 88.4943C77.2122 88.3498 76.9623 88.2671 76.7042 88.2551C76.4461 88.2431 76.1897 88.3024 75.963 88.4264C75.7363 88.5504 75.548 88.7344 75.4187 88.9582C75.2894 89.1821 75.2241 89.4372 75.23 89.6957C75.2358 89.9541 75.3125 90.2061 75.4517 90.4239C75.5909 90.6417 75.7873 90.817 76.0193 90.9307C76.2514 91.0443 76.5102 91.092 76.7675 91.0684C77.0248 91.0448 77.2706 90.9509 77.4782 90.7969L78.0534 91.4589C77.7151 91.7394 77.3043 91.9185 76.8686 91.9754C76.4329 92.0322 75.99 91.9647 75.591 91.7804C75.1921 91.5962 74.8533 91.3028 74.6138 90.9341C74.3744 90.5654 74.244 90.1365 74.2377 89.6968C74.2315 89.2572 74.3496 88.8247 74.5784 88.4493C74.8073 88.0739 75.1375 87.771 75.5311 87.5755C75.9247 87.3799 76.3655 87.2997 76.8026 87.3442C77.2398 87.3886 77.6554 87.5558 78.0017 87.8266L77.4264 88.4943Z" fill="white"/>
<path d="M83.1787 88.3043H81.1079V89.1333H82.8336V90.0313H81.1079V91.0099H83.1902V91.9136H80.2105V87.4006H83.2075L83.1787 88.3043Z" fill="white"/>
<path d="M91.7152 88.4943C91.5009 88.3498 91.2511 88.2671 90.993 88.2551C90.7349 88.2431 90.4785 88.3024 90.2518 88.4264C90.0251 88.5504 89.8368 88.7344 89.7075 88.9582C89.5782 89.1821 89.5129 89.4372 89.5187 89.6957C89.5245 89.9541 89.6012 90.2061 89.7404 90.4239C89.8797 90.6417 90.076 90.817 90.3081 90.9307C90.5401 91.0443 90.799 91.092 91.0562 91.0684C91.3135 91.0448 91.5594 90.9509 91.767 90.7969L92.3422 91.4589C92.0038 91.7394 91.5931 91.9185 91.1574 91.9754C90.7217 92.0322 90.2788 91.9647 89.8798 91.7804C89.4808 91.5962 89.1421 91.3028 88.9026 90.9341C88.6631 90.5654 88.5327 90.1365 88.5265 89.6968C88.5202 89.2572 88.6383 88.8247 88.8672 88.4493C89.096 88.0739 89.4263 87.771 89.8199 87.5755C90.2134 87.3799 90.6542 87.2997 91.0914 87.3442C91.5285 87.3886 91.9442 87.5558 92.2904 87.8266L91.7152 88.4943Z" fill="white"/>
<path d="M98.4914 89.6514C98.4926 90.1139 98.3566 90.5663 98.1007 90.9514C97.8447 91.3365 97.4804 91.6369 97.0537 91.8147C96.6271 91.9925 96.1573 92.0396 95.7039 91.9501C95.2505 91.8605 94.8338 91.6384 94.5066 91.3118C94.1794 90.9851 93.9564 90.5687 93.8659 90.1152C93.7753 89.6617 93.8212 89.1915 93.9978 88.7641C94.1744 88.3367 94.4737 87.9714 94.8579 87.7143C95.2421 87.4572 95.6938 87.32 96.156 87.32C96.7744 87.32 97.3676 87.5654 97.8054 88.0025C98.2432 88.4396 98.4899 89.0325 98.4914 89.6514ZM94.7467 89.6514C94.7455 89.9306 94.8272 90.2038 94.9814 90.4365C95.1356 90.6692 95.3553 90.8508 95.6127 90.9585C95.8701 91.0661 96.1536 91.0948 96.4274 91.0411C96.7012 90.9873 96.9528 90.8534 97.1505 90.6564C97.3482 90.4594 97.483 90.2081 97.5378 89.9344C97.5927 89.6607 97.5651 89.3768 97.4586 89.1188C97.3521 88.8607 97.1715 88.6401 96.9396 88.4849C96.7077 88.3297 96.435 88.2468 96.156 88.2468C95.7832 88.2468 95.4256 88.3946 95.1615 88.6578C94.8974 88.9211 94.7482 89.2783 94.7467 89.6514Z" fill="white"/>
<path d="M104.031 91.9136V89.1505L102.742 90.3018L101.448 89.1505V91.9136H100.551V87.4006H100.856L102.742 89.1275L104.618 87.4006H104.934V91.9136H104.031Z" fill="white"/>
<path d="M108.501 87.4006C108.845 87.423 109.167 87.5756 109.403 87.8274C109.639 88.0791 109.77 88.4112 109.77 88.7562C109.77 89.1012 109.639 89.4333 109.403 89.6851C109.167 89.9368 108.845 90.0894 108.501 90.1119H107.925V91.9136H107.028V87.4006H108.501ZM108.501 89.2081C108.56 89.2089 108.618 89.1978 108.673 89.1755C108.728 89.1532 108.778 89.1202 108.82 89.0783C108.861 89.0365 108.894 88.9867 108.917 88.9318C108.939 88.877 108.95 88.8183 108.949 88.7591C108.95 88.6997 108.939 88.6406 108.917 88.5855C108.895 88.5304 108.862 88.4802 108.82 88.4379C108.778 88.3956 108.728 88.362 108.674 88.3391C108.619 88.3161 108.56 88.3043 108.501 88.3043H107.925V89.2254L108.501 89.2081Z" fill="white"/>
<path d="M114.374 91.0732H112.51L112.084 91.9136H111.072L113.373 87.4006H113.637L115.766 91.9136H114.771L114.374 91.0732ZM113.948 90.1752L113.476 89.1678L112.97 90.1752H113.948Z" fill="white"/>
<path d="M120.931 91.9136L118.395 89.2772V91.9136H117.497V87.4006H117.779L120.27 89.9219V87.4006H121.167V91.9136H120.931Z" fill="white"/>
<path d="M127 87.4006L125.533 90.2788V91.9367H124.636V90.2788L123.163 87.4006H124.158L125.084 89.0987L126.005 87.4006H127Z" fill="white"/>
</svg>
