<svg width="20" height="20" viewBox="0 0 20 20" fill="none" xmlns="http://www.w3.org/2000/svg">
<path d="M13.8408 0.833252H6.15909C2.82242 0.833252 0.833252 2.82242 0.833252 6.15909V13.8316C0.833252 17.1774 2.82242 19.1666 6.15909 19.1666H13.8316C17.1683 19.1666 19.1574 17.1774 19.1574 13.8408V6.15909C19.1666 2.82242 17.1774 0.833252 13.8408 0.833252ZM14.3816 7.89159L9.18408 13.0891C9.05575 13.2174 8.88159 13.2908 8.69825 13.2908C8.51492 13.2908 8.34075 13.2174 8.21242 13.0891L5.61825 10.4949C5.35242 10.2291 5.35242 9.78909 5.61825 9.52325C5.88409 9.25742 6.32409 9.25742 6.58992 9.52325L8.69825 11.6316L13.4099 6.91992C13.6758 6.65409 14.1158 6.65409 14.3816 6.91992C14.6474 7.18575 14.6474 7.61659 14.3816 7.89159Z" fill="#1A6E78"/>
</svg>
