<svg width="16" height="16" viewBox="0 0 16 16" fill="none" xmlns="http://www.w3.org/2000/svg">
<path fill-rule="evenodd" clip-rule="evenodd" d="M15.7081 14.0738C15.6018 14.1797 15.4737 14.3151 15.3379 14.4584C14.9989 14.8182 14.5753 15.2654 14.3099 15.4468C12.9133 16.4011 11.0449 15.9445 9.7233 15.3938C7.97986 14.6674 6.08174 13.3284 4.37743 11.6239C2.67153 9.91926 1.33269 8.02054 0.606274 6.2781C0.0562649 4.95621 -0.401336 3.08743 0.553148 1.69053C0.734401 1.4249 1.18269 1.00205 1.54201 0.662386C1.68576 0.526946 1.82014 0.398975 1.92639 0.293067C2.11503 0.105369 2.37031 0 2.63642 0C2.90253 0 3.15781 0.105369 3.34644 0.293067L5.91611 2.86198C6.10371 3.05061 6.20901 3.30583 6.20901 3.57186C6.20901 3.83789 6.10371 4.0931 5.91611 4.28173L5.2161 4.98033C4.98232 5.2124 4.82973 5.51376 4.78102 5.83954C4.73232 6.16533 4.79012 6.49813 4.94582 6.78843C5.90864 8.60566 7.39506 10.0918 9.21245 11.0543C9.50268 11.21 9.83541 11.2677 10.1611 11.2189C10.4868 11.1701 10.788 11.0175 11.0199 10.7836L11.7182 10.085C11.9068 9.89728 12.1621 9.79191 12.4282 9.79191C12.6943 9.79191 12.9496 9.89728 13.1383 10.085L15.7081 12.6543C15.8957 12.8429 16.001 13.0981 16.001 13.3641C16.001 13.63 15.8957 13.8852 15.7081 14.0738Z" fill="white"/>
</svg>
