<svg width="28" height="28" viewBox="0 0 28 28" fill="none" xmlns="http://www.w3.org/2000/svg">
<g clip-path="url(#clip0_11_693)">
<path d="M24.3333 0.400024H3.93333C2.05823 0.400024 0.533325 1.92492 0.533325 3.80002V24.2C0.533325 26.0751 2.05823 27.6 3.93333 27.6H24.3333C26.2084 27.6 27.7333 26.0751 27.7333 24.2V3.80002C27.7333 1.92492 26.2084 0.400024 24.3333 0.400024Z" fill="white"/>
<g clip-path="url(#clip1_11_693)">
<path d="M21.976 6.84378L5.91336 12.8608C4.81716 13.2886 4.8235 13.8826 5.71224 14.1475L9.83616 15.3972L19.3777 9.54913C19.8289 9.28247 20.2411 9.42592 19.9023 9.71811L12.1717 16.4956H12.1699L12.1717 16.4965L11.8873 20.6258C12.304 20.6258 12.4879 20.4401 12.7216 20.2209L14.7247 18.3287L18.8912 21.3183C19.6595 21.7294 20.2112 21.5181 20.4024 20.6275L23.1374 8.10581C23.4174 7.0154 22.7089 6.52167 21.976 6.84378Z" fill="#1A6E78"/>
</g>
</g>
<defs>
<clipPath id="clip0_11_693">
<rect width="27.2" height="27.2" fill="white" transform="translate(0.533325 0.400024)"/>
</clipPath>
<clipPath id="clip1_11_693">
<rect width="18.1333" height="15.4133" fill="white" transform="translate(5.06665 6.74664)"/>
</clipPath>
</defs>
</svg>
