<svg width="28" height="28" viewBox="0 0 28 28" fill="none" xmlns="http://www.w3.org/2000/svg">
<g clip-path="url(#clip0_11_688)">
<path d="M24.0667 0.400024H3.66672C1.79162 0.400024 0.266724 1.92492 0.266724 3.80002V24.2C0.266724 26.0751 1.79162 27.6 3.66672 27.6H24.0667C25.9418 27.6 27.4667 26.0751 27.4667 24.2V3.80002C27.4667 1.92492 25.9418 0.400024 24.0667 0.400024Z" fill="white"/>
<g clip-path="url(#clip1_11_688)">
<path d="M20.2908 6.6996C19.4554 5.84899 18.4603 5.17456 17.3637 4.71566C16.267 4.25675 15.0906 4.02256 13.9031 4.02673C8.92789 4.02673 4.87295 8.1141 4.87295 13.1292C4.87295 14.7366 5.29211 16.298 6.07576 17.6758L4.80005 22.397L9.58397 21.1294C10.9052 21.855 12.3905 22.2408 13.9031 22.2408C18.8785 22.2408 22.9334 18.1534 22.9334 13.1384C22.9334 10.7043 21.9948 8.41721 20.2908 6.6996ZM13.9031 20.6977C12.5545 20.6977 11.2333 20.3303 10.076 19.6415L9.80266 19.4761L6.95965 20.2293L7.71596 17.437L7.53372 17.1522C6.78446 15.9462 6.38662 14.5522 6.38557 13.1292C6.38557 8.95914 9.7571 5.56064 13.8941 5.56064C15.8987 5.56064 17.785 6.35057 19.1974 7.78344C19.8967 8.48515 20.4509 9.3198 20.8279 10.239C21.2049 11.1582 21.3971 12.1437 21.3934 13.1384C21.4116 17.3084 18.0401 20.6977 13.9031 20.6977ZM18.0219 15.0397C17.7941 14.9294 16.6824 14.3783 16.4819 14.2957C16.2723 14.2222 16.1266 14.1855 15.9716 14.4059C15.8167 14.6355 15.3885 15.1499 15.2609 15.2969C15.1333 15.453 14.9966 15.4714 14.7688 15.352C14.541 15.2418 13.812 14.9938 12.9555 14.2222C12.2812 13.616 11.8347 12.872 11.698 12.6423C11.5704 12.4127 11.6798 12.2933 11.7982 12.174C11.8985 12.0729 12.026 11.9076 12.1354 11.779C12.2447 11.6504 12.2903 11.5493 12.3632 11.4024C12.4361 11.2462 12.3997 11.1176 12.345 11.0074C12.2903 10.8972 11.8347 9.77662 11.6524 9.31736C11.4702 8.87647 11.2788 8.93158 11.1422 8.9224H10.7048C10.5499 8.9224 10.3129 8.97751 10.1034 9.20714C9.9029 9.43677 9.31971 9.98788 9.31971 11.1085C9.31971 12.229 10.1307 13.3129 10.24 13.4598C10.3494 13.616 11.8347 15.9123 14.0945 16.8951C14.6322 17.1339 15.0513 17.2717 15.3793 17.3727C15.917 17.5472 16.409 17.5196 16.8008 17.4646C17.2382 17.4003 18.1404 16.9135 18.3226 16.3807C18.514 15.848 18.514 15.3979 18.4501 15.2969C18.3864 15.1958 18.2497 15.1499 18.0219 15.0397Z" fill="#1A6E78"/>
</g>
</g>
<defs>
<clipPath id="clip0_11_688">
<rect width="27.2" height="27.2" fill="white" transform="translate(0.266724 0.400024)"/>
</clipPath>
<clipPath id="clip1_11_688">
<rect width="18.1333" height="19.04" fill="white" transform="translate(4.80005 4.02667)"/>
</clipPath>
</defs>
</svg>
